<svg viewBox="0 0 20 20" fill="none" xmlns="http://www.w3.org/2000/svg">
  <path fill-rule="evenodd" clip-rule="evenodd" d="M3.33334 8.55832L3.33334 8H1.66667V8.55556H1.67085L1.66668 8.55972L1.66667 8.55556L0.555569 8.55557V9.66668L0 9.66667V11.3333H0.555556L0.555569 12.4445H1.66667V13H3.33334V12.4445H4.44445V11.3333H5V9.66667H4.44445V8.55557L3.33334 8.55832Z" fill="#212529"/>
  <path fill-rule="evenodd" clip-rule="evenodd" d="M10.8333 8.55832L10.8333 8H9.16667V8.55556H9.17085L9.16668 8.55972L9.16667 8.55556L8.05557 8.55557V9.66668L7.5 9.66667V11.3333H8.05556L8.05557 12.4445H9.16667V13H10.8333V12.4445H11.9445V11.3333H12.5V9.66667H11.9445V8.55557L10.8333 8.55832Z" fill="#212529"/>
  <path fill-rule="evenodd" clip-rule="evenodd" d="M18.3333 8.55832L18.3333 8H16.6667V8.55556H16.6709L16.6667 8.55972L16.6667 8.55556L15.5556 8.55557V9.66668L15 9.66667V11.3333H15.5556L15.5556 12.4445H16.6667V13H18.3333V12.4445H19.4445V11.3333H20V9.66667H19.4445V8.55557L18.3333 8.55832Z" fill="#212529"/>
</svg>
