<svg viewBox="0 0 20 20" fill="none" xmlns="http://www.w3.org/2000/svg">
  <rect x="2" y="4" width="2" height="2" fill="#212529"/>
  <rect x="4" y="2" width="2" height="2" fill="#212529"/>
  <rect x="2" y="2" width="2" height="2" fill="#212529"/>
  <rect x="6" y="2" width="2" height="2" fill="#212529"/>
  <rect x="8" y="2" width="2" height="2" fill="#212529"/>
  <rect x="10" y="2" width="2" height="2" fill="#212529"/>
  <rect x="12" y="2" width="2" height="2" fill="#212529"/>
  <rect x="16" y="2" width="2" height="2" fill="#212529"/>
  <rect x="14" y="4" width="2" height="2" fill="#212529"/>
  <rect x="10" y="8" width="2" height="2" fill="#212529"/>
  <rect x="8" y="10" width="2" height="2" fill="#212529"/>
  <rect x="6" y="8" width="2" height="2" fill="#212529"/>
  <rect x="12" y="6" width="2" height="2" fill="#212529"/>
  <rect x="16" y="10" width="2" height="2" fill="#212529"/>
  <rect x="16" y="8" width="2" height="2" fill="#212529"/>
  <rect x="16" y="6" width="2" height="2" fill="#212529"/>
  <rect x="16" y="12" width="2" height="2" fill="#212529"/>
  <rect x="16" y="14" width="2" height="2" fill="#212529"/>
  <rect x="16" y="16" width="2" height="2" fill="#212529"/>
  <rect x="14" y="16" width="2" height="2" fill="#212529"/>
  <rect x="2" y="6" width="2" height="2" fill="#212529"/>
  <rect x="2" y="8" width="2" height="2" fill="#212529"/>
  <rect x="2" y="10" width="2" height="2" fill="#212529"/>
  <rect x="2" y="12" width="2" height="2" fill="#212529"/>
  <rect x="2" y="14" width="2" height="2" fill="#212529"/>
  <rect x="4" y="16" width="2" height="2" fill="#212529"/>
  <rect x="2" y="16" width="2" height="2" fill="#212529"/>
  <rect x="6" y="16" width="2" height="2" fill="#212529"/>
  <rect x="8" y="16" width="2" height="2" fill="#212529"/>
  <rect x="10" y="16" width="2" height="2" fill="#212529"/>
  <rect x="12" y="16" width="2" height="2" fill="#212529"/>
</svg>
