<svg viewBox="0 0 100 110" fill="none" xmlns="http://www.w3.org/2000/svg">
  <rect x="6" y="6" width="88" height="88" fill="white"/>
  <rect y="6" width="2" height="88" fill="#212529"/>
  <rect x="2" y="6" width="4" height="88" fill="white"/>
  <rect x="6" width="88" height="2" fill="#212529"/>
  <rect x="4" y="4" width="92" height="2" fill="white"/>
  <rect x="6" y="2" width="88" height="2" fill="white"/>
  <rect x="94" y="2" width="2" height="2" fill="#212529"/>
  <rect x="96" y="4" width="2" height="2" fill="#212529"/>
  <rect x="96" y="92" width="2" height="2" fill="#212529"/>
  <rect x="94" y="94" width="2" height="2" fill="#212529"/>
  <rect x="92" y="96" width="2" height="2" fill="#212529"/>
  <rect x="4" y="96" width="2" height="2" fill="#212529"/>
  <rect width="2" height="2" transform="matrix(-1 0 0 1 96 96)" fill="#212529"/>
  <rect x="2" y="94" width="2" height="2" fill="#212529"/>
  <rect width="2" height="2" transform="matrix(-1 0 0 1 98 94)" fill="#212529"/>
  <rect x="4" y="2" width="2" height="2" fill="#212529"/>
  <rect x="2" y="4" width="2" height="2" fill="#212529"/>
  <rect x="6" y="98" width="88" height="2" fill="#212529"/>
  <rect x="6" y="96" width="88" height="2" fill="white"/>
  <rect x="4" y="94" width="92" height="2" fill="white"/>
  <rect x="98" y="6" width="2" height="88" fill="#212529"/>
  <rect x="94" y="6" width="4" height="88" fill="white"/>
  <rect x="30" y="104" width="40" height="1.99999" fill="#212529"/>
  <rect x="37" y="102" width="26" height="2" fill="#212529"/>
  <rect x="44" y="100" width="12" height="2" fill="#212529"/>
  <rect x="22" y="106" width="56" height="1.99999" fill="#212529"/>
  <rect x="16" y="108" width="68" height="1.99999" fill="#212529"/>
  <rect width="4.61539" height="4.61538" transform="matrix(-1 0 0 1 47.6923 24.6155)" fill="#F9D65F"/>
  <rect width="4.61539" height="4.61539" transform="matrix(-1 0 0 1 47.6923 29.2307)" fill="white"/>
  <rect width="4.61539" height="4.61538" transform="matrix(-1 0 0 1 47.6923 33.8462)" fill="#F9D65F"/>
  <rect width="4.61539" height="4.61539" transform="matrix(-1 0 0 1 47.6923 43.0769)" fill="#F9D65F"/>
  <rect width="4.61539" height="4.61539" transform="matrix(-1 0 0 1 47.6923 38.4614)" fill="#F9D65F"/>
  <rect width="4.61538" height="4.61538" transform="matrix(-1 0 0 1 56.9231 24.6155)" fill="#F9D65F"/>
  <rect width="4.61538" height="4.61539" transform="matrix(-1 0 0 1 56.9231 29.2307)" fill="white"/>
  <rect width="4.61538" height="4.61538" transform="matrix(-1 0 0 1 56.9231 33.8462)" fill="#F9D65F"/>
  <rect width="4.61538" height="4.61539" transform="matrix(-1 0 0 1 56.9231 43.0769)" fill="#F9D65F"/>
  <rect width="4.61538" height="4.61539" transform="matrix(-1 0 0 1 56.9231 38.4614)" fill="#F9D65F"/>
  <rect width="4.61539" height="4.61538" transform="matrix(-1 0 0 1 52.3077 20)" fill="#F9D65F"/>
  <rect width="4.61539" height="4.61538" transform="matrix(-1 0 0 1 52.3077 24.6155)" fill="white"/>
  <rect width="4.61539" height="4.61539" transform="matrix(-1 0 0 1 52.3077 29.2307)" fill="#F9D65F"/>
  <rect width="4.61539" height="4.61538" transform="matrix(-1 0 0 1 52.3077 33.8462)" fill="#F9D65F"/>
  <rect width="4.61539" height="4.61539" transform="matrix(-1 0 0 1 52.3077 43.0769)" fill="#F9D65F"/>
  <rect width="4.61539" height="4.61539" transform="matrix(-1 0 0 1 52.3077 38.4614)" fill="#F9D65F"/>
  <rect width="4.61539" height="4.61538" transform="matrix(-1 0 0 1 43.0769 33.8462)" fill="#F9D65F"/>
  <rect width="4.61539" height="4.61539" transform="matrix(-1 0 0 1 43.0769 43.0769)" fill="#F9D65F"/>
  <rect width="4.61539" height="4.61539" transform="matrix(-1 0 0 1 43.0769 38.4614)" fill="#F9D65F"/>
  <rect width="4.61539" height="4.61539" transform="matrix(-1 0 0 1 43.0769 29.2307)" fill="#F9D65F"/>
  <rect width="4.61538" height="4.61539" transform="matrix(-1 0 0 1 38.4615 43.0769)" fill="#F9D65F"/>
  <rect width="4.61538" height="4.61539" transform="matrix(-1 0 0 1 38.4615 38.4614)" fill="#F9D65F"/>
  <rect width="4.61538" height="4.61538" transform="matrix(-1 0 0 1 38.4615 33.8462)" fill="#F9D65F"/>
  <rect width="4.61539" height="4.61538" transform="matrix(-1 0 0 1 66.1538 33.8462)" fill="#F9D65F"/>
  <rect width="4.61539" height="4.61539" transform="matrix(-1 0 0 1 33.8462 43.0769)" fill="#F9D65F"/>
  <rect width="4.61539" height="4.61539" transform="matrix(-1 0 0 1 33.8462 38.4614)" fill="#F9D65F"/>
  <rect width="4.61538" height="4.61539" transform="matrix(-1 0 0 1 70.7693 43.0769)" fill="#F9D65F"/>
  <rect width="4.61538" height="4.61539" transform="matrix(-1 0 0 1 70.7693 38.4614)" fill="#F9D65F"/>
  <rect width="4.61538" height="4.61539" transform="matrix(-1 0 0 1 29.2307 43.0769)" fill="#F9D65F"/>
  <rect width="4.61538" height="4.61539" transform="matrix(-1 0 0 1 29.2307 38.4614)" fill="#F9D65F"/>
  <rect width="4.61538" height="4.61539" transform="matrix(-1 0 0 1 24.6154 43.0769)" fill="#F9D65F"/>
  <rect width="4.61538" height="4.61539" transform="matrix(-1 0 0 1 80 43.0769)" fill="#F9D65F"/>
  <rect width="4.61538" height="4.61538" transform="matrix(-1 0 0 1 61.5385 33.8462)" fill="#F9D65F"/>
  <rect width="4.61538" height="4.61539" transform="matrix(-1 0 0 1 61.5385 43.0769)" fill="#F9D65F"/>
  <rect width="4.61538" height="4.61539" transform="matrix(-1 0 0 1 61.5385 38.4614)" fill="#F9D65F"/>
  <rect width="4.61538" height="4.61539" transform="matrix(-1 0 0 1 61.5385 29.2307)" fill="#F9D65F"/>
  <rect width="4.61539" height="4.61539" transform="matrix(-1 0 0 1 66.1538 43.0769)" fill="#F9D65F"/>
  <rect width="4.61539" height="4.61539" transform="matrix(-1 0 0 1 66.1538 38.4614)" fill="#F9D65F"/>
  <rect width="4.61539" height="4.61539" transform="matrix(-1 0 0 1 75.3846 43.0769)" fill="#F9D65F"/>
  <rect width="4.61539" height="4.61539" transform="matrix(-1 0 0 1 75.3846 38.4614)" fill="#F9D65F"/>
  <rect width="4.61538" height="4.61539" transform="matrix(-1 0 0 1 80 38.4614)" fill="#F9D65F"/>
  <rect x="47.6923" y="66.1538" width="4.61539" height="4.61539" transform="rotate(180 47.6923 66.1538)" fill="#F9D65F"/>
  <rect x="47.6923" y="56.9231" width="4.61539" height="4.61538" transform="rotate(180 47.6923 56.9231)" fill="#F9D65F"/>
  <rect x="47.6923" y="61.5386" width="4.61539" height="4.61538" transform="rotate(180 47.6923 61.5386)" fill="#3E3E3E"/>
  <rect x="75.3846" y="61.5386" width="4.61539" height="4.61538" transform="rotate(180 75.3846 61.5386)" fill="#3E3E3E"/>
  <rect x="47.6923" y="52.3076" width="4.61539" height="4.61539" transform="rotate(180 47.6923 52.3076)" fill="#F9D65F"/>
  <rect x="56.9231" y="66.1538" width="4.61538" height="4.61539" transform="rotate(180 56.9231 66.1538)" fill="#F9D65F"/>
  <rect x="56.9231" y="56.9231" width="4.61538" height="4.61538" transform="rotate(180 56.9231 56.9231)" fill="#F9D65F"/>
  <rect x="56.9231" y="61.5386" width="4.61538" height="4.61538" transform="rotate(180 56.9231 61.5386)" fill="#F9D65F"/>
  <rect x="56.9231" y="52.3076" width="4.61538" height="4.61539" transform="rotate(180 56.9231 52.3076)" fill="#F9D65F"/>
  <rect x="52.3077" y="66.1538" width="4.61539" height="4.61539" transform="rotate(180 52.3077 66.1538)" fill="#F9D65F"/>
  <rect x="52.3077" y="56.9231" width="4.61539" height="4.61538" transform="rotate(180 52.3077 56.9231)" fill="#F9D65F"/>
  <rect x="52.3077" y="61.5386" width="4.61539" height="4.61538" transform="rotate(180 52.3077 61.5386)" fill="#F9D65F"/>
  <rect x="52.3077" y="52.3076" width="4.61539" height="4.61539" transform="rotate(180 52.3077 52.3076)" fill="#F9D65F"/>
  <rect x="43.0769" y="70.7693" width="4.61539" height="4.61538" transform="rotate(180 43.0769 70.7693)" fill="#F9D65F"/>
  <rect x="43.0769" y="66.1538" width="4.61539" height="4.61539" transform="rotate(180 43.0769 66.1538)" fill="#F9D65F"/>
  <rect x="43.0769" y="56.9231" width="4.61539" height="4.61538" transform="rotate(180 43.0769 56.9231)" fill="#F9D65F"/>
  <rect x="43.0769" y="52.3076" width="4.61539" height="4.61539" transform="rotate(180 43.0769 52.3076)" fill="#3E3E3E"/>
  <rect x="38.4615" y="75.3845" width="4.61538" height="4.61539" transform="rotate(180 38.4615 75.3845)" fill="#F9D65F"/>
  <rect x="38.4615" y="80" width="4.61538" height="4.61538" transform="rotate(180 38.4615 80)" fill="#F9D65F"/>
  <rect x="66.1538" y="80" width="4.61539" height="4.61538" transform="rotate(180 66.1538 80)" fill="#F9D65F"/>
  <rect x="70.7693" y="75.3845" width="4.61538" height="4.61539" transform="rotate(180 70.7693 75.3845)" fill="#F9D65F"/>
  <rect x="38.4615" y="70.7693" width="4.61538" height="4.61538" transform="rotate(180 38.4615 70.7693)" fill="#F9D65F"/>
  <rect x="38.4615" y="66.1538" width="4.61538" height="4.61539" transform="rotate(180 38.4615 66.1538)" fill="#F9D65F"/>
  <rect x="38.4615" y="56.9231" width="4.61538" height="4.61538" transform="rotate(180 38.4615 56.9231)" fill="#F9D65F"/>
  <rect x="38.4615" y="52.3076" width="4.61538" height="4.61539" transform="rotate(180 38.4615 52.3076)" fill="#F9D65F"/>
  <rect x="33.8462" y="70.7693" width="4.61539" height="4.61538" transform="rotate(180 33.8462 70.7693)" fill="#F9D65F"/>
  <rect x="33.8462" y="75.3845" width="4.61539" height="4.61539" transform="rotate(180 33.8462 75.3845)" fill="#F9D65F"/>
  <rect x="43.0769" y="75.3845" width="4.61539" height="4.61539" transform="rotate(180 43.0769 75.3845)" fill="#F9D65F"/>
  <rect x="61.5385" y="75.3845" width="4.61538" height="4.61539" transform="rotate(180 61.5385 75.3845)" fill="#F9D65F"/>
  <rect x="47.6923" y="70.7693" width="4.61539" height="4.61538" transform="rotate(180 47.6923 70.7693)" fill="#F9D65F"/>
  <rect x="56.9231" y="70.7693" width="4.61538" height="4.61538" transform="rotate(180 56.9231 70.7693)" fill="#F9D65F"/>
  <rect x="33.8462" y="66.1538" width="4.61539" height="4.61539" transform="rotate(180 33.8462 66.1538)" fill="#F9D65F"/>
  <rect x="33.8462" y="56.9231" width="4.61539" height="4.61538" transform="rotate(180 33.8462 56.9231)" fill="#F9D65F"/>
  <rect x="33.8462" y="61.5386" width="4.61539" height="4.61538" transform="rotate(180 33.8462 61.5386)" fill="#3E3E3E"/>
  <rect x="33.8462" y="52.3076" width="4.61539" height="4.61539" transform="rotate(180 33.8462 52.3076)" fill="#F9D65F"/>
  <rect x="70.7693" y="70.7693" width="4.61538" height="4.61538" transform="rotate(180 70.7693 70.7693)" fill="#F9D65F"/>
  <rect x="70.7693" y="66.1538" width="4.61538" height="4.61539" transform="rotate(180 70.7693 66.1538)" fill="#F9D65F"/>
  <rect x="70.7693" y="56.9231" width="4.61538" height="4.61538" transform="rotate(180 70.7693 56.9231)" fill="#F9D65F"/>
  <rect x="70.7693" y="52.3076" width="4.61538" height="4.61539" transform="rotate(180 70.7693 52.3076)" fill="#3E3E3E"/>
  <rect x="24.6154" y="43.0769" width="4.61538" height="4.61539" transform="rotate(180 24.6154 43.0769)" fill="#F9D65F"/>
  <rect x="80" y="52.3076" width="4.61538" height="4.61539" transform="rotate(180 80 52.3076)" fill="#F9D65F"/>
  <rect x="61.5385" y="70.7693" width="4.61538" height="4.61538" transform="rotate(180 61.5385 70.7693)" fill="#F9D65F"/>
  <rect x="61.5385" y="66.1538" width="4.61538" height="4.61539" transform="rotate(180 61.5385 66.1538)" fill="#F9D65F"/>
  <rect x="61.5385" y="56.9231" width="4.61538" height="4.61538" transform="rotate(180 61.5385 56.9231)" fill="#F9D65F"/>
  <rect x="61.5385" y="61.5386" width="4.61538" height="4.61538" transform="rotate(180 61.5385 61.5386)" fill="#3E3E3E"/>
  <rect x="61.5385" y="52.3076" width="4.61538" height="4.61539" transform="rotate(180 61.5385 52.3076)" fill="#F9D65F"/>
  <rect x="66.1538" y="75.3845" width="4.61539" height="4.61539" transform="rotate(180 66.1538 75.3845)" fill="#F9D65F"/>
  <rect x="66.1538" y="70.7693" width="4.61539" height="4.61538" transform="rotate(180 66.1538 70.7693)" fill="#F9D65F"/>
  <rect x="66.1538" y="66.1538" width="4.61539" height="4.61539" transform="rotate(180 66.1538 66.1538)" fill="#F9D65F"/>
  <rect x="66.1538" y="56.9231" width="4.61539" height="4.61538" transform="rotate(180 66.1538 56.9231)" fill="#F9D65F"/>
  <rect x="66.1538" y="52.3076" width="4.61539" height="4.61539" transform="rotate(180 66.1538 52.3076)" fill="#F9D65F"/>
  <rect x="75.3846" y="56.9231" width="4.61539" height="4.61538" transform="rotate(180 75.3846 56.9231)" fill="#F9D65F"/>
  <rect x="75.3846" y="52.3076" width="4.61539" height="4.61539" transform="rotate(180 75.3846 52.3076)" fill="#F9D65F"/>
  <rect x="24.6154" y="43.0769" width="4.61538" height="4.61539" fill="#3E3E3E"/>
  <rect x="20" y="43.0769" width="4.61538" height="4.61539" fill="#3E3E3E"/>
  <rect width="4.61538" height="4.61539" transform="matrix(-1 0 0 1 80 43.0769)" fill="#3E3E3E"/>
  <rect x="29.2307" y="43.0769" width="4.61539" height="4.61539" fill="#3E3E3E"/>
  <rect width="4.61539" height="4.61539" transform="matrix(-1 0 0 1 75.3846 43.0769)" fill="#3E3E3E"/>
  <rect x="33.8462" y="43.0769" width="4.61538" height="4.61539" fill="#3E3E3E"/>
  <rect x="38.4615" y="52.3076" width="4.61539" height="4.61538" fill="#3E3E3E"/>
  <rect width="4.61538" height="4.61539" transform="matrix(-1 0 0 1 70.7693 43.0769)" fill="#3E3E3E"/>
  <rect x="29.2307" y="47.6924" width="4.61539" height="4.61539" fill="#3E3E3E"/>
  <rect x="24.6154" y="47.6924" width="4.61538" height="4.61539" fill="#F9D65F"/>
  <rect width="4.61539" height="4.61539" transform="matrix(-1 0 0 1 75.3846 47.6924)" fill="#3E3E3E"/>
  <rect x="33.8462" y="56.9231" width="4.61538" height="4.61538" fill="#3E3E3E"/>
  <rect width="4.61538" height="4.61538" transform="matrix(-1 0 0 1 70.7693 56.9231)" fill="#3E3E3E"/>
  <rect x="29.2307" y="52.3076" width="4.61539" height="4.61538" fill="#3E3E3E"/>
  <rect width="4.61539" height="4.61538" transform="matrix(-1 0 0 1 75.3846 52.3076)" fill="#3E3E3E"/>
  <rect x="43.0769" y="52.3076" width="4.61539" height="4.61538" fill="#3E3E3E"/>
  <rect width="4.61538" height="4.61538" transform="matrix(-1 0 0 1 61.5385 52.3076)" fill="#3E3E3E"/>
  <rect x="38.4615" y="56.9231" width="4.61539" height="4.61538" fill="#3E3E3E"/>
  <rect width="4.61539" height="4.61538" transform="matrix(-1 0 0 1 66.1538 56.9231)" fill="#3E3E3E"/>
  <rect x="43.0769" y="47.6924" width="4.61539" height="4.61539" fill="#3E3E3E"/>
  <rect width="4.61538" height="4.61539" transform="matrix(-1 0 0 1 61.5385 47.6924)" fill="#3E3E3E"/>
  <rect width="4.61539" height="4.61539" transform="matrix(-1 0 0 1 66.1538 47.6924)" fill="#3E3E3E"/>
  <rect width="4.61539" height="4.61539" transform="matrix(-1 0 0 1 66.1538 47.6924)" fill="white"/>
  <rect width="4.61538" height="4.61539" transform="matrix(-1 0 0 1 38.4615 47.6924)" fill="white"/>
  <rect width="4.61539" height="4.61538" transform="matrix(-1 0 0 1 66.1538 52.3076)" fill="white"/>
  <rect width="4.61538" height="4.61538" transform="matrix(-1 0 0 1 38.4615 52.3076)" fill="white"/>
  <rect width="4.61538" height="4.61538" transform="matrix(-1 0 0 1 70.7693 52.3076)" fill="#3E3E3E"/>
  <rect x="43.0769" y="43.0769" width="4.61539" height="4.61539" fill="#3E3E3E"/>
  <rect width="4.61538" height="4.61539" transform="matrix(-1 0 0 1 61.5385 43.0769)" fill="#3E3E3E"/>
  <rect x="47.6923" y="43.0769" width="4.61539" height="4.61539" fill="#3E3E3E"/>
  <rect width="4.61538" height="4.61539" transform="matrix(-1 0 0 1 56.9231 43.0769)" fill="#3E3E3E"/>
  <rect x="38.4615" y="43.0769" width="4.61539" height="4.61539" fill="#3E3E3E"/>
  <rect width="4.61539" height="4.61539" transform="matrix(-1 0 0 1 66.1538 43.0769)" fill="#3E3E3E"/>
</svg>
