<svg width="20" height="20" viewBox="0 0 20 20" fill="none" xmlns="http://www.w3.org/2000/svg">
<rect x="2" y="2.6001" width="1.59999" height="1.59999" fill="#54572E"/>
<rect x="6.7998" y="9" width="1.59999" height="1.59999" fill="#54572E"/>
<rect x="3.60034" y="1" width="1.59999" height="1.59999" fill="#54572E"/>
<rect x="8.40015" y="7.3999" width="1.59999" height="1.59999" fill="#54572E"/>
<rect x="5.19995" y="1" width="1.59999" height="1.59999" fill="#54572E"/>
<rect x="9.99976" y="7.3999" width="1.59999" height="1.59999" fill="#54572E"/>
<rect x="6.7998" y="1" width="1.59999" height="1.59999" fill="#54572E"/>
<rect x="11.6001" y="7.3999" width="1.59999" height="1.59999" fill="#54572E"/>
<rect x="8.40015" y="1" width="1.59999" height="1.59999" fill="#54572E"/>
<rect x="13.2" y="7.3999" width="1.59999" height="1.59999" fill="#54572E"/>
<rect x="9.99976" y="1" width="1.59999" height="1.59999" fill="#54572E"/>
<rect x="14.8" y="7.3999" width="1.59999" height="1.59999" fill="#54572E"/>
<rect x="11.6001" y="2.6001" width="1.59999" height="1.59999" fill="#54572E"/>
<rect x="16.3999" y="9" width="1.59999" height="1.59999" fill="#54572E"/>
<rect x="11.6001" y="4.2002" width="1.59999" height="1.59999" fill="#54572E"/>
<rect x="16.3999" y="10.6001" width="1.59999" height="1.59999" fill="#54572E"/>
<rect x="2" y="4.2002" width="1.59999" height="1.59999" fill="#54572E"/>
<rect x="6.7998" y="10.6001" width="1.59999" height="1.59999" fill="#54572E"/>
<rect x="2" y="5.7998" width="1.59999" height="1.59999" fill="#54572E"/>
<rect x="6.7998" y="12.1997" width="1.59999" height="1.59999" fill="#54572E"/>
<rect x="2" y="7.3999" width="1.59999" height="1.59999" fill="#54572E"/>
<rect x="6.7998" y="13.8003" width="1.59999" height="1.59999" fill="#54572E"/>
<rect x="2" y="9" width="1.59999" height="1.59999" fill="#54572E"/>
<rect x="6.7998" y="15.3999" width="1.59999" height="1.59999" fill="#54572E"/>
<rect x="3.60034" y="10.6001" width="1.59999" height="1.59999" fill="#54572E"/>
<rect x="8.40015" y="16.9995" width="1.59999" height="1.59999" fill="#54572E"/>
<rect x="9.99976" y="16.9995" width="1.59999" height="1.59999" fill="#54572E"/>
<rect x="11.6001" y="16.9995" width="1.59999" height="1.59999" fill="#54572E"/>
<rect x="13.2" y="16.9995" width="1.59999" height="1.59999" fill="#54572E"/>
<rect x="14.8" y="16.9995" width="1.59999" height="1.59999" fill="#54572E"/>
<rect x="16.3999" y="15.3999" width="1.59999" height="1.59999" fill="#54572E"/>
<rect x="16.3999" y="13.8003" width="1.59999" height="1.59999" fill="#54572E"/>
<rect x="16.3999" y="12.1997" width="1.59999" height="1.59999" fill="#54572E"/>
</svg>
