<svg viewBox="0 0 20 20" fill="none" xmlns="http://www.w3.org/2000/svg">
  <rect x="10" width="1" height="1" fill="black"/>
  <rect x="10" y="1" width="1" height="1" fill="black"/>
  <rect x="10" y="2" width="1" height="1" fill="black"/>
  <rect x="10" y="3" width="1" height="1" fill="black"/>
  <rect x="10" y="5" width="1" height="1" fill="black"/>
  <rect x="10" y="8" width="1" height="1" fill="black"/>
  <rect x="10" y="4" width="1" height="1" fill="black"/>
  <rect x="10" y="6" width="1" height="1" fill="black"/>
  <rect x="10" y="7" width="1" height="1" fill="black"/>
  <rect x="10" y="9" width="1" height="1" fill="black"/>
  <rect x="10" y="10" width="1" height="1" fill="black"/>
  <rect x="10" y="11" width="1" height="1" fill="black"/>
  <rect x="9" y="1" width="1" height="1" fill="black"/>
  <rect x="9" y="2" width="1" height="1" fill="black"/>
  <rect x="9" y="3" width="1" height="1" fill="black"/>
  <rect x="9" y="5" width="1" height="1" fill="black"/>
  <rect x="9" y="8" width="1" height="1" fill="black"/>
  <rect x="9" y="4" width="1" height="1" fill="black"/>
  <rect x="9" y="6" width="1" height="1" fill="black"/>
  <rect x="9" y="7" width="1" height="1" fill="black"/>
  <rect x="9" y="9" width="1" height="1" fill="black"/>
  <rect x="9" y="10" width="1" height="1" fill="black"/>
  <rect x="9" y="11" width="1" height="1" fill="black"/>
  <rect x="7" y="5" width="1" height="1" fill="black"/>
  <rect x="7" y="8" width="1" height="1" fill="black"/>
  <rect x="6" y="8" width="1" height="1" fill="black"/>
  <rect x="14" y="8" width="1" height="1" fill="black"/>
  <rect x="8" y="3" width="1" height="1" fill="black"/>
  <rect x="8" y="5" width="1" height="1" fill="black"/>
  <rect x="8" y="8" width="1" height="1" fill="black"/>
  <rect x="12" y="3" width="1" height="1" fill="black"/>
  <rect x="12" y="5" width="1" height="1" fill="black"/>
  <rect x="12" y="8" width="1" height="1" fill="black"/>
  <rect x="7" y="6" width="1" height="1" fill="black"/>
  <rect x="7" y="7" width="1" height="1" fill="black"/>
  <rect x="7" y="9" width="1" height="1" fill="black"/>
  <rect x="7" y="10" width="1" height="1" fill="black"/>
  <rect x="6" y="9" width="1" height="1" fill="black"/>
  <rect x="14" y="9" width="1" height="1" fill="black"/>
  <rect x="8" y="4" width="1" height="1" fill="black"/>
  <rect x="8" y="6" width="1" height="1" fill="black"/>
  <rect x="8" y="7" width="1" height="1" fill="black"/>
  <rect x="8" y="9" width="1" height="1" fill="black"/>
  <rect x="8" y="10" width="1" height="1" fill="black"/>
  <rect x="8" y="11" width="1" height="1" fill="black"/>
  <rect x="12" y="4" width="1" height="1" fill="black"/>
  <rect x="12" y="6" width="1" height="1" fill="black"/>
  <rect x="12" y="7" width="1" height="1" fill="black"/>
  <rect x="12" y="9" width="1" height="1" fill="black"/>
  <rect x="12" y="10" width="1" height="1" fill="black"/>
  <rect x="12" y="11" width="1" height="1" fill="black"/>
  <rect x="6" y="6" width="1" height="1" fill="black"/>
  <rect x="6" y="7" width="1" height="1" fill="black"/>
  <rect x="5" y="8" width="1" height="1" fill="black"/>
  <rect x="5" y="9" width="1" height="1" fill="black"/>
  <rect x="4" y="11" width="1" height="1" fill="black"/>
  <rect x="5" y="13" width="1" height="1" fill="black"/>
  <rect x="6" y="14" width="1" height="1" fill="black"/>
  <rect x="7" y="15" width="1" height="1" fill="black"/>
  <rect width="1" height="1" transform="matrix(-1 0 0 1 8 4)" fill="black"/>
  <rect width="1" height="1" transform="matrix(-1 0 0 1 14 4)" fill="black"/>
  <rect x="8" y="15" width="1" height="1" fill="black"/>
  <rect x="9" y="16" width="1" height="1" fill="black"/>
  <rect x="9" y="17" width="1" height="1" fill="black"/>
  <rect x="8" y="17" width="1" height="1" fill="black"/>
  <rect x="12" y="17" width="1" height="1" fill="black"/>
  <rect x="10" y="17" width="1" height="1" fill="black"/>
  <rect x="11" y="16" width="1" height="1" fill="black"/>
  <rect x="11" y="17" width="1" height="1" fill="black"/>
  <rect x="12" y="15" width="1" height="1" fill="black"/>
  <rect x="12" y="16" width="1" height="1" fill="black"/>
  <rect x="13" y="15" width="1" height="1" fill="black"/>
  <rect x="13" y="14" width="1" height="1" fill="black"/>
  <rect x="7" y="14" width="1" height="1" fill="black"/>
  <rect x="13" y="16" width="1" height="1" fill="black"/>
  <rect x="11" y="18" width="1" height="1" fill="black"/>
  <rect x="7" y="16" width="1" height="1" fill="black"/>
  <rect x="8" y="16" width="1" height="1" fill="black"/>
  <rect x="9" y="18" width="1" height="1" fill="black"/>
  <rect x="10" y="18" width="1" height="1" fill="black"/>
  <rect x="10" y="19" width="1" height="1" fill="black"/>
  <rect x="14" y="14" width="1" height="1" fill="black"/>
  <rect x="14" y="13" width="1" height="1" fill="black"/>
  <rect x="6" y="13" width="1" height="1" fill="black"/>
  <rect x="5" y="12" width="1" height="1" fill="black"/>
  <rect x="15" y="12" width="1" height="1" fill="black"/>
  <rect x="15" y="13" width="1" height="1" fill="black"/>
  <rect x="16" y="11" width="1" height="1" fill="black"/>
  <rect x="6" y="10" width="1" height="1" fill="black"/>
  <rect x="7" y="11" width="1" height="1" fill="black"/>
  <rect x="8" y="12" width="1" height="1" fill="black"/>
  <rect x="9" y="12" width="1" height="1" fill="black"/>
  <rect x="9" y="13" width="1" height="1" fill="black"/>
  <rect x="11" y="13" width="1" height="1" fill="black"/>
  <rect x="10" y="14" width="1" height="1" fill="black"/>
  <rect x="10" y="13" width="1" height="1" fill="black"/>
  <rect x="10" y="12" width="1" height="1" fill="black"/>
  <rect x="11" y="12" width="1" height="1" fill="black"/>
  <rect x="12" y="12" width="1" height="1" fill="black"/>
  <rect x="13" y="11" width="1" height="1" fill="black"/>
  <rect x="14" y="10" width="1" height="1" fill="black"/>
  <rect x="15" y="9" width="1" height="1" fill="black"/>
  <rect x="15" y="8" width="1" height="1" fill="black"/>
  <rect x="14" y="6" width="1" height="1" fill="black"/>
  <rect x="14" y="7" width="1" height="1" fill="black"/>
  <rect x="13" y="6" width="1" height="1" fill="black"/>
  <rect x="13" y="7" width="1" height="1" fill="black"/>
  <rect x="13" y="9" width="1" height="1" fill="black"/>
  <rect x="13" y="10" width="1" height="1" fill="black"/>
  <rect x="13" y="5" width="1" height="1" fill="black"/>
  <rect x="13" y="8" width="1" height="1" fill="black"/>
  <rect x="11" y="1" width="1" height="1" fill="black"/>
  <rect x="11" y="2" width="1" height="1" fill="black"/>
  <rect x="11" y="3" width="1" height="1" fill="black"/>
  <rect x="11" y="5" width="1" height="1" fill="black"/>
  <rect x="11" y="8" width="1" height="1" fill="black"/>
  <rect x="11" y="4" width="1" height="1" fill="black"/>
  <rect x="11" y="6" width="1" height="1" fill="black"/>
  <rect x="11" y="7" width="1" height="1" fill="black"/>
  <rect x="11" y="9" width="1" height="1" fill="black"/>
  <rect x="11" y="10" width="1" height="1" fill="black"/>
  <rect x="11" y="11" width="1" height="1" fill="black"/>
</svg>
