<svg viewBox="0 0 215 44" fill="none" xmlns="http://www.w3.org/2000/svg">
  <ellipse cx="25" cy="22" rx="21.875" ry="22" fill="#34AC80"/>
  <path d="M28.125 12.5713H9.375V15.7141H28.125V12.5713Z" fill="#212529"/>
  <path d="M50 12.5713H31.25V15.7141H50V12.5713Z" fill="#212529"/>
  <path d="M18.75 15.7144H9.375V18.8572H18.75V15.7144Z" fill="#212529"/>
  <path d="M21.875 15.7144H18.75V18.8572H21.875V15.7144Z" fill="#212529"/>
  <path d="M28.125 15.7144H21.875V18.8572H28.125V15.7144Z" fill="#212529"/>
  <path d="M40.625 15.7144H31.25V18.8572H40.625V15.7144Z" fill="#212529"/>
  <path d="M43.75 15.7144H40.625V18.8572H43.75V15.7144Z" fill="#212529"/>
  <path d="M43.75 22H40.625V25.1429H43.75V22Z" fill="#212529"/>
  <path d="M50 15.7144H43.75V18.8572H50V15.7144Z" fill="#212529"/>
  <path d="M50 18.8569H0V21.9998H50V18.8569Z" fill="#212529"/>
  <path d="M3.125 22H0V25.1429H3.125V22Z" fill="#212529"/>
  <path d="M12.5 22H9.375V25.1429H12.5V22Z" fill="#212529"/>
  <path d="M15.625 22H12.5V25.1429H15.625V22Z" fill="#212529"/>
  <path d="M21.875 22H15.625V25.1429H21.875V22Z" fill="#212529"/>
  <path d="M28.125 22H25V25.1429H28.125V22Z" fill="#212529"/>
  <path d="M34.375 22H31.25V25.1429H34.375V22Z" fill="#212529"/>
  <path d="M43.75 22H34.375V25.1429H43.75V22Z" fill="#212529"/>
  <path d="M50 22H46.875V25.1429H50V22Z" fill="#212529"/>
  <path d="M3.125 25.1431H0V28.2859H3.125V25.1431Z" fill="#212529"/>
  <path d="M28.125 25.1431H9.375V28.2859H28.125V25.1431Z" fill="#212529"/>
  <path d="M50 25.1431H31.25V28.2859H50V25.1431Z" fill="#212529"/>
  <path d="M28.125 28.2856H9.375V31.4285H28.125V28.2856Z" fill="#212529"/>
  <path d="M50 28.2856H31.25V31.4285H50V28.2856Z" fill="#212529"/>
  <path d="M43.75 25.1431H37.5V28.2859H43.75V25.1431Z" fill="white"/>
  <path d="M46.875 25.1431H43.75V28.2859H46.875V25.1431Z" fill="white"/>
  <path d="M46.875 22H43.75V25.1429H46.875V22Z" fill="white"/>
  <path d="M25 25.1431H21.875V28.2859H25V25.1431Z" fill="white"/>
  <path d="M25 22H21.875V25.1429H25V22Z" fill="white"/>
  <path d="M21.875 25.1431H18.75V28.2859H21.875V25.1431Z" fill="white"/>
  <path d="M18.75 25.1431H15.625V28.2859H18.75V25.1431Z" fill="white"/>
  <path d="M73.6918 30.1261C73.9776 30.1261 74.1794 30.1093 74.297 30.0756C74.4147 30.042 74.4904 30.0168 74.524 30V29.4957C74.524 29.1594 74.5156 28.8232 74.4988 28.487C74.4988 28.1508 74.4988 27.8146 74.4988 27.4783C74.4988 27.0076 74.4988 26.5453 74.4988 26.0914C74.5156 25.6375 74.524 25.1668 74.524 24.6793C74.524 23.9564 74.524 23.2335 74.524 22.5107C74.524 21.7878 74.5156 21.0733 74.4988 20.3673V12.2475C74.0112 12.1467 73.4565 12.0962 72.8345 12.0962C72.1957 12.0962 71.5905 12.1467 71.0189 12.2475C71.0021 12.6678 70.9853 13.0629 70.9684 13.4327C70.9684 13.7857 70.9684 14.1388 70.9684 14.4918C70.9684 15.097 70.9768 15.6938 70.9937 16.2822C71.0273 16.8537 71.0441 17.4758 71.0441 18.1482C71.0441 18.434 71.0273 18.7282 70.9937 19.0308C70.96 19.3334 70.918 19.5015 70.8676 19.5351C70.8508 19.5351 70.7919 19.4427 70.6911 19.2577C70.5902 19.056 70.4641 18.8206 70.3128 18.5517C70.1783 18.2659 70.027 17.9549 69.8589 17.6187C69.6908 17.2656 69.5311 16.9378 69.3798 16.6352C69.2285 16.3158 69.094 16.0384 68.9763 15.8031C68.8587 15.5677 68.783 15.408 68.7494 15.3239C68.5981 14.9709 68.4636 14.6851 68.3459 14.4666C68.2451 14.2312 68.1442 14.0211 68.0433 13.8362C67.9593 13.6512 67.8668 13.4579 67.7659 13.2562C67.6651 13.0544 67.5558 12.8023 67.4381 12.4997C67.4381 12.4661 67.3457 12.4324 67.1607 12.3988C66.9926 12.3652 66.7909 12.34 66.5555 12.3232C66.3202 12.2895 66.0848 12.2727 65.8495 12.2727C65.6141 12.2559 65.446 12.2475 65.3451 12.2475C65.1434 12.2475 64.9417 12.2559 64.7399 12.2727C64.555 12.2895 64.3785 12.3148 64.2104 12.3484C64.1263 13.4243 64.0675 14.5338 64.0339 15.677C64.0003 16.8033 63.9834 17.9465 63.9834 19.1064C63.9834 20.6867 63.9919 22.1997 64.0087 23.6454C64.0423 25.0912 64.0591 26.6126 64.0591 28.2096V29.9748C64.4458 29.9748 64.8408 30 65.2443 30.0504C65.6646 30.1009 66.0764 30.1261 66.4799 30.1261C66.6648 30.1261 66.8497 30.1177 67.0347 30.1009C67.2196 30.0841 67.4045 30.0504 67.5894 30C67.5726 29.7142 67.5642 29.3948 67.5642 29.0418C67.5642 28.6719 67.5642 28.2937 67.5642 27.907C67.5642 27.201 67.5642 26.4697 67.5642 25.7132C67.581 24.9567 67.5978 24.2674 67.6146 23.6454C67.6314 23.0234 67.6483 22.5107 67.6651 22.1072C67.6987 21.7037 67.7239 21.502 67.7407 21.502C67.7743 21.502 67.8164 21.5861 67.8668 21.7542C67.934 21.9055 68.0013 22.0736 68.0685 22.2585L68.3207 23.015C68.7074 24.0909 69.1697 25.2173 69.7076 26.394C70.2624 27.554 70.8171 28.756 71.3719 30C71.7081 30 72.0948 30.0168 72.5319 30.0504C72.969 30.1009 73.3556 30.1261 73.6918 30.1261ZM76.6938 18.5012C76.6434 18.6862 76.5677 18.9383 76.4668 19.2577C76.366 19.5603 76.3071 19.8041 76.2903 19.989C76.2399 20.3084 76.2063 20.6194 76.1895 20.922C76.1726 21.2078 76.1642 21.502 76.1642 21.8046C76.2147 22.3594 76.2231 22.973 76.1895 23.6454C76.1726 24.3179 76.1811 24.9903 76.2147 25.6627C76.2483 26.3184 76.3492 26.9488 76.5173 27.554C76.6854 28.1592 76.9964 28.6635 77.4503 29.067C78.0387 29.6554 78.7616 30.0252 79.6189 30.1765C80.0896 30.1765 80.6108 30.1933 81.1823 30.2269C81.7539 30.2774 82.3087 30.2774 82.8466 30.2269C83.3846 30.1933 83.8805 30.0925 84.3344 29.9244C84.8051 29.7562 85.1834 29.4705 85.4692 29.067C85.6373 28.8989 85.7634 28.5879 85.8474 28.134C85.9483 27.6801 86.0239 27.1673 86.0744 26.5958C86.1416 26.0242 86.1836 25.4274 86.2004 24.8054C86.2341 24.1834 86.2593 23.6286 86.2761 23.1411C86.2593 22.5863 86.2425 22.0484 86.2257 21.5272C86.2089 20.9893 86.1668 20.5018 86.0996 20.0647C86.0323 19.6108 85.9315 19.2157 85.797 18.8795C85.6625 18.5433 85.4776 18.2995 85.2422 18.1482C84.8892 17.812 84.4689 17.5598 83.9814 17.3917C83.4939 17.2068 82.9811 17.0975 82.4432 17.0639C82.0901 17.0303 81.7539 17.0303 81.4345 17.0639C81.1319 17.0807 80.8125 17.0723 80.4763 17.0387C80.0728 17.0387 79.6693 17.0639 79.2659 17.1143C78.8792 17.1648 78.5094 17.2572 78.1564 17.3917C77.8201 17.5094 77.5175 17.6607 77.2486 17.8456C76.9964 18.0305 76.8115 18.2491 76.6938 18.5012ZM79.8459 21.4768C80.0644 21.2078 80.3502 21.0229 80.7032 20.922C81.3589 20.7707 81.8884 20.8296 82.2919 21.0985C82.6953 21.3675 82.9391 21.7962 83.0232 22.3846C83.124 22.8721 83.1492 23.3933 83.0988 23.948C83.0652 24.486 83.0147 25.0239 82.9475 25.5619C82.8466 25.9822 82.6533 26.2595 82.3675 26.394C82.149 26.5117 81.8716 26.5958 81.5354 26.6462C81.1992 26.6798 80.8713 26.663 80.5519 26.5958C80.2493 26.5117 79.9888 26.3688 79.7702 26.1671C79.5517 25.9485 79.4508 25.6459 79.4676 25.2593C79.5012 24.6709 79.518 24.1161 79.518 23.595C79.518 23.057 79.5517 22.5191 79.6189 21.9811C79.6693 21.7121 79.745 21.544 79.8459 21.4768ZM93.948 28.6383C93.9649 28.8737 93.9649 29.0838 93.948 29.2687C93.948 29.4536 93.9649 29.689 93.9985 29.9748C93.9985 30.0252 94.0657 30.0504 94.2002 30.0504C94.3347 30.0672 94.486 30.0672 94.6541 30.0504C94.8222 30.0336 94.9903 30.0168 95.1584 30C95.3266 29.9664 95.4442 29.9496 95.5115 29.9496C95.7132 29.9328 95.8813 29.9244 96.0158 29.9244C96.1503 29.9075 96.2764 29.8991 96.3941 29.8991C96.5117 29.8991 96.6378 29.9075 96.7723 29.9244C96.9068 29.9244 97.0749 29.9328 97.2766 29.9496C97.3439 27.7305 97.3523 25.5871 97.3019 23.5193C97.2682 21.4516 97.2514 19.3838 97.2514 17.3161C96.848 17.3497 96.5117 17.3581 96.2428 17.3413C95.9738 17.3245 95.73 17.3161 95.5115 17.3161C95.2929 17.2992 95.0744 17.2992 94.8558 17.3161C94.6541 17.3329 94.4103 17.3833 94.1246 17.4674V17.5682C94.0405 18.123 93.9985 18.6778 93.9985 19.2325C94.0153 19.7873 94.0321 20.3505 94.0489 20.922C94.0825 21.4768 94.1077 22.04 94.1246 22.6115C94.1414 23.1831 94.133 23.7547 94.0993 24.3263C94.0657 24.7802 93.948 25.1248 93.7463 25.3601C93.5446 25.5787 93.3176 25.73 93.0655 25.814C92.8133 25.8813 92.5527 25.8981 92.2837 25.8645C92.0316 25.814 91.8383 25.7552 91.7038 25.688C91.687 25.6712 91.6701 25.6627 91.6533 25.6627C91.6365 25.6627 91.6197 25.6543 91.6029 25.6375C91.4684 25.5367 91.3591 25.3938 91.2751 25.2088C91.2078 25.0239 91.149 24.8138 91.0986 24.5784C91.0649 24.3431 91.0397 24.1077 91.0229 23.8724C91.0061 23.6202 90.9893 23.3933 90.9725 23.1915C90.9389 22.7376 90.9136 22.2501 90.8968 21.729C90.8968 21.2078 90.8968 20.6867 90.8968 20.1655C90.9136 19.6444 90.9221 19.1401 90.9221 18.6525C90.9221 18.165 90.9052 17.7279 90.8716 17.3413C90.2832 17.3413 89.7537 17.3413 89.283 17.3413C88.8291 17.3245 88.3079 17.3581 87.7195 17.4421C87.7532 18.0137 87.7616 18.6778 87.7448 19.4342C87.728 20.1907 87.7111 20.9809 87.6943 21.8046C87.6775 22.6115 87.6607 23.4185 87.6439 24.2254C87.6439 25.0155 87.6523 25.7468 87.6691 26.4192C87.7027 27.0917 87.7616 27.6717 87.8456 28.1592C87.9465 28.6299 88.081 28.9409 88.2491 29.0922C88.6021 29.3948 88.9972 29.6049 89.4343 29.7226C89.8714 29.8403 90.3169 29.8907 90.7708 29.8739C91.2415 29.8571 91.6954 29.7731 92.1325 29.6218C92.5695 29.4705 92.9646 29.2687 93.3176 29.0166C93.4017 28.9493 93.5026 28.8821 93.6202 28.8148C93.7547 28.7476 93.864 28.6887 93.948 28.6383ZM102.476 18.7534C102.459 18.518 102.451 18.3079 102.451 18.123C102.468 17.9381 102.459 17.7027 102.426 17.4169C102.426 17.3665 102.359 17.3413 102.224 17.3413C102.09 17.3245 101.938 17.3245 101.77 17.3413C101.602 17.3581 101.434 17.3833 101.266 17.4169C101.098 17.4337 100.98 17.4421 100.913 17.4421C100.711 17.4589 100.543 17.4758 100.408 17.4926C100.274 17.4926 100.148 17.4926 100.03 17.4926C99.9125 17.4926 99.7864 17.4926 99.6519 17.4926C99.5174 17.4758 99.3493 17.4589 99.1476 17.4421C99.0803 19.6612 99.0635 21.8046 99.0972 23.8724C99.1476 25.9401 99.1728 28.0079 99.1728 30.0756C99.5763 30.042 99.9125 30.0336 100.181 30.0504C100.45 30.0672 100.694 30.0756 100.913 30.0756C101.131 30.0925 101.341 30.0925 101.543 30.0756C101.762 30.0588 102.014 30.0084 102.3 29.9244V29.8235C102.367 29.2687 102.401 28.714 102.401 28.1592C102.401 27.6044 102.384 27.0497 102.35 26.4949C102.333 25.9233 102.316 25.3601 102.3 24.8054C102.283 24.2338 102.291 23.6538 102.325 23.0654C102.359 22.6115 102.476 22.2753 102.678 22.0568C102.88 21.8214 103.107 21.6701 103.359 21.6029C103.611 21.5188 103.863 21.502 104.115 21.5524C104.384 21.5861 104.586 21.6365 104.72 21.7037C104.737 21.7206 104.754 21.729 104.771 21.729C104.788 21.729 104.805 21.7374 104.821 21.7542C104.956 21.855 105.057 21.9979 105.124 22.1829C105.208 22.3678 105.267 22.5779 105.3 22.8133C105.351 23.0486 105.384 23.2924 105.401 23.5446C105.418 23.7799 105.435 23.9985 105.452 24.2002C105.485 24.6541 105.502 25.1416 105.502 25.6627C105.519 26.1839 105.519 26.705 105.502 27.2262C105.502 27.7473 105.502 28.2516 105.502 28.7392C105.502 29.2267 105.519 29.6638 105.553 30.0504C106.141 30.0504 106.662 30.0504 107.116 30.0504C107.587 30.0672 108.116 30.0336 108.705 29.9496C108.671 29.378 108.663 28.714 108.679 27.9575C108.696 27.201 108.713 26.4192 108.73 25.6123C108.747 24.7886 108.755 23.9816 108.755 23.1915C108.772 22.3846 108.764 21.6449 108.73 20.9725C108.713 20.3 108.654 19.7284 108.553 19.2577C108.469 18.7702 108.343 18.4508 108.175 18.2995C107.822 17.9969 107.427 17.7868 106.99 17.6691C106.553 17.5514 106.099 17.501 105.628 17.5178C105.174 17.5346 104.729 17.6187 104.292 17.77C103.855 17.9213 103.46 18.123 103.107 18.3752C103.023 18.4424 102.913 18.5096 102.779 18.5769C102.661 18.6441 102.56 18.703 102.476 18.7534ZM120.561 21.2751C120.561 20.3673 120.393 19.5519 120.057 18.829C119.721 18.0894 119.158 17.5514 118.368 17.2152C117.93 17.1143 117.451 17.0387 116.93 16.9882C116.409 16.921 115.888 16.8874 115.367 16.8874C114.846 16.8874 114.35 16.9126 113.879 16.963C113.425 17.0135 113.038 17.0807 112.719 17.1648C111.895 17.3833 111.256 17.8036 110.803 18.4256C110.365 19.0476 110.13 19.7284 110.097 20.4681C110.08 21.191 110.281 21.8971 110.702 22.5863C111.139 23.2588 111.828 23.7547 112.769 24.0741C113.24 24.2758 113.719 24.4187 114.207 24.5028C114.694 24.5868 115.131 24.6877 115.518 24.8054C115.905 24.9062 116.216 25.0575 116.451 25.2593C116.686 25.461 116.779 25.7636 116.728 26.1671C116.745 26.6546 116.594 26.9908 116.275 27.1757C115.955 27.3607 115.602 27.4363 115.215 27.4027C114.829 27.3523 114.459 27.2094 114.106 26.974C113.77 26.7218 113.593 26.4024 113.576 26.0158C113.055 26.0158 112.442 26.0074 111.736 25.9906C111.03 25.9569 110.399 25.9738 109.844 26.041V26.0914V26.1671C109.844 26.8395 109.979 27.4447 110.248 27.9827C110.534 28.5206 110.92 28.9745 111.408 29.3444C111.912 29.7142 112.509 29.9916 113.198 30.1765C113.887 30.3614 114.661 30.4371 115.518 30.4035C116.493 30.4203 117.393 30.2522 118.216 29.8991C119.04 29.5461 119.645 28.9577 120.032 28.134C120.351 27.2094 120.469 26.4361 120.385 25.814C120.301 25.1752 120.074 24.5532 119.704 23.948C119.317 23.4437 118.712 23.0822 117.888 22.8637C117.065 22.6283 116.182 22.4434 115.241 22.3089C114.854 22.1745 114.56 21.9727 114.358 21.7037C114.156 21.4348 114.056 21.1658 114.056 20.8968C114.056 20.6278 114.148 20.3841 114.333 20.1655C114.535 19.9302 114.829 19.7789 115.215 19.7116C115.434 19.6948 115.653 19.7284 115.871 19.8125C116.106 19.8797 116.308 19.989 116.476 20.1403C116.661 20.2916 116.796 20.4681 116.88 20.6699C116.981 20.8716 117.006 21.0733 116.955 21.2751C117.527 21.3927 118.132 21.4432 118.771 21.4264C119.427 21.4095 120.023 21.3591 120.561 21.2751ZM137.643 18.0473C137.878 16.7865 137.777 15.7442 137.34 14.9205C136.903 14.0967 136.281 13.4747 135.474 13.0544C135.071 12.8695 134.625 12.7182 134.138 12.6006C133.667 12.4829 133.18 12.4156 132.675 12.3988C132.188 12.3652 131.7 12.382 131.213 12.4493C130.725 12.4997 130.28 12.609 129.876 12.7771C129.069 13.1133 128.38 13.626 127.808 14.3153C127.254 15.0045 126.875 15.7694 126.674 16.61C126.472 17.4505 126.48 18.3163 126.699 19.2073C126.934 20.0983 127.439 20.9136 128.212 21.6533C128.447 21.855 128.708 22.0316 128.994 22.1829C129.279 22.3342 129.59 22.4434 129.927 22.5107C130.28 22.5779 130.658 22.6536 131.061 22.7376C131.465 22.8049 131.835 22.9141 132.171 23.0654C132.524 23.2167 132.827 23.4185 133.079 23.6706C133.331 23.906 133.482 24.2254 133.533 24.6289C133.633 25.2173 133.516 25.6543 133.18 25.9401C132.86 26.2259 132.473 26.3772 132.02 26.394C131.582 26.394 131.162 26.2595 130.759 25.9906C130.372 25.7216 130.162 25.3181 130.128 24.7802C129.557 24.797 128.918 24.7886 128.212 24.7549C127.506 24.7045 126.859 24.7213 126.27 24.8054V24.881V24.9567C126.22 25.7636 126.363 26.4865 126.699 27.1253C127.035 27.7473 127.489 28.2769 128.061 28.714C128.632 29.151 129.279 29.4957 130.002 29.7478C130.742 29.9832 131.482 30.1093 132.221 30.1261C132.742 30.1429 133.247 30.1009 133.734 30C134.239 29.8823 134.701 29.7058 135.121 29.4705C135.558 29.2351 135.945 28.9325 136.281 28.5627C136.617 28.1928 136.886 27.7473 137.088 27.2262C137.29 26.7891 137.433 26.3352 137.517 25.8645C137.618 25.377 137.651 24.8978 137.618 24.4271C137.601 23.9564 137.517 23.5025 137.366 23.0654C137.214 22.6115 136.987 22.1913 136.685 21.8046C136.197 21.0817 135.567 20.4849 134.793 20.0142C134.037 19.5435 133.213 19.2577 132.322 19.1569C131.969 19.1064 131.641 19.014 131.339 18.8795C131.036 18.745 130.818 18.476 130.683 18.0726C130.666 17.9549 130.649 17.8456 130.633 17.7447C130.633 17.6271 130.649 17.5094 130.683 17.3917C130.75 16.921 130.969 16.6016 131.339 16.4335C131.725 16.2654 132.12 16.2233 132.524 16.3074C132.927 16.3914 133.272 16.5848 133.558 16.8874C133.844 17.19 133.936 17.5682 133.835 18.0221C134.424 18.1902 135.054 18.2659 135.726 18.2491C136.399 18.2154 137.029 18.1482 137.618 18.0473H137.643ZM143.628 12.7519C143.342 12.7855 143.057 12.7939 142.771 12.7771C142.485 12.7603 142.199 12.7434 141.913 12.7266C141.628 12.693 141.35 12.6678 141.081 12.651C140.829 12.6342 140.594 12.6426 140.375 12.6762C140.342 12.9956 140.316 13.357 140.299 13.7605C140.299 14.164 140.299 14.5843 140.299 15.0213C140.299 15.4584 140.308 15.8955 140.325 16.3326C140.342 16.7529 140.35 17.1479 140.35 17.5178C140.081 17.5178 139.795 17.5178 139.493 17.5178C139.207 17.5178 138.896 17.5094 138.56 17.4926L138.484 20.569C138.837 20.569 139.156 20.569 139.442 20.569C139.745 20.569 140.031 20.5606 140.299 20.5438C140.283 21.771 140.291 22.9646 140.325 24.1245C140.358 25.2677 140.484 26.4865 140.703 27.7809C140.921 28.3021 141.275 28.714 141.762 29.0166C142.266 29.3192 142.838 29.5461 143.477 29.6974C144.116 29.8487 144.796 29.9496 145.519 30C146.242 30.0336 146.94 30.0336 147.612 30C147.696 29.7478 147.747 29.4705 147.764 29.1679C147.797 28.8653 147.806 28.5627 147.789 28.2601C147.772 27.9575 147.747 27.6633 147.713 27.3775C147.68 27.0917 147.646 26.8311 147.612 26.5958C147.327 26.6126 146.99 26.6126 146.604 26.5958C146.234 26.5789 145.864 26.5369 145.494 26.4697C145.124 26.3856 144.78 26.2763 144.46 26.1419C144.141 26.0074 143.897 25.8225 143.729 25.5871C143.712 24.8306 143.704 24.0237 143.704 23.1663C143.704 22.2921 143.704 21.4011 143.704 20.4933H147.612C147.579 20.2748 147.57 20.0142 147.587 19.7116C147.621 19.3922 147.646 19.0812 147.663 18.7786C147.68 18.476 147.68 18.1986 147.663 17.9465C147.646 17.6775 147.579 17.4758 147.461 17.3413C146.604 17.3917 145.881 17.4337 145.292 17.4674C144.721 17.501 144.174 17.5262 143.653 17.543C143.653 17.2908 143.645 17.0471 143.628 16.8117C143.628 16.5764 143.628 16.3494 143.628 16.1309V12.7519ZM152.321 18.2743C152.321 18.1566 152.312 18.0726 152.295 18.0221C152.295 17.9717 152.295 17.9297 152.295 17.896C152.295 17.8456 152.295 17.7868 152.295 17.7195C152.295 17.6523 152.295 17.5514 152.295 17.4169C152.295 17.3833 152.22 17.3665 152.069 17.3665C151.934 17.3497 151.766 17.3497 151.564 17.3665C151.379 17.3833 151.194 17.4001 151.009 17.4169C150.841 17.4337 150.724 17.4421 150.656 17.4421C150.455 17.4589 150.287 17.4758 150.152 17.4926C150.018 17.4926 149.892 17.4926 149.774 17.4926C149.656 17.4926 149.53 17.4926 149.396 17.4926C149.261 17.4758 149.093 17.4589 148.891 17.4421C148.824 19.6612 148.807 21.8046 148.841 23.8724C148.891 25.9401 148.916 28.0079 148.916 30.0756C149.32 30.042 149.665 30.0336 149.95 30.0504C150.253 30.0672 150.53 30.0756 150.782 30.0756C151.035 30.0925 151.278 30.0925 151.514 30.0756C151.749 30.0588 152.01 30.0084 152.295 29.9244V29.8235C152.295 29.2015 152.287 28.6215 152.27 28.0835C152.27 27.5288 152.27 26.9908 152.27 26.4697C152.27 25.9317 152.262 25.4022 152.245 24.881C152.228 24.3599 152.211 23.8051 152.195 23.2167C152.178 22.746 152.245 22.3846 152.396 22.1324C152.548 21.8803 152.758 21.6953 153.027 21.5777C153.313 21.46 153.64 21.4011 154.01 21.4011C154.397 21.4011 154.817 21.4264 155.271 21.4768C155.288 21.4768 155.397 21.4936 155.599 21.5272C155.817 21.5608 156.028 21.6029 156.229 21.6533C156.313 21.6869 156.397 21.7206 156.481 21.7542C156.582 21.771 156.675 21.7962 156.759 21.8298L156.986 21.9055C156.969 21.6533 156.961 21.3843 156.961 21.0985C156.961 20.8128 156.961 20.5018 156.961 20.1655C156.961 19.8125 156.961 19.4174 156.961 18.9803C156.977 18.5433 156.986 18.0389 156.986 17.4674C156.986 17.4505 156.86 17.4421 156.608 17.4421C156.372 17.4253 156.078 17.4253 155.725 17.4421C155.372 17.4589 154.994 17.501 154.59 17.5682C154.187 17.6187 153.825 17.6943 153.506 17.7952C153.271 17.8792 153.027 17.9717 152.775 18.0726C152.539 18.1734 152.388 18.2407 152.321 18.2743ZM201.544 18.7534C201.527 18.518 201.519 18.3079 201.519 18.123C201.536 17.9381 201.527 17.7027 201.494 17.4169C201.494 17.3665 201.427 17.3413 201.292 17.3413C201.158 17.3245 201.006 17.3245 200.838 17.3413C200.67 17.3581 200.502 17.3833 200.334 17.4169C200.166 17.4337 200.048 17.4421 199.981 17.4421C199.779 17.4589 199.611 17.4758 199.477 17.4926C199.342 17.4926 199.216 17.4926 199.098 17.4926C198.981 17.4926 198.855 17.4926 198.72 17.4926C198.586 17.4758 198.417 17.4589 198.216 17.4421C198.148 19.6612 198.132 21.8046 198.165 23.8724C198.216 25.9401 198.241 28.0079 198.241 30.0756C198.644 30.042 198.981 30.0336 199.25 30.0504C199.519 30.0672 199.762 30.0756 199.981 30.0756C200.199 30.0925 200.41 30.0925 200.611 30.0756C200.83 30.0588 201.082 30.0084 201.368 29.9244V29.8235C201.435 29.2687 201.469 28.714 201.469 28.1592C201.469 27.6044 201.452 27.0497 201.418 26.4949C201.401 25.9233 201.385 25.3601 201.368 24.8054C201.351 24.2338 201.359 23.6538 201.393 23.0654C201.427 22.6115 201.544 22.2753 201.746 22.0568C201.948 21.8214 202.175 21.6701 202.427 21.6029C202.679 21.5188 202.931 21.502 203.183 21.5524C203.452 21.5861 203.654 21.6365 203.789 21.7037C203.805 21.7206 203.822 21.729 203.839 21.729C203.856 21.729 203.873 21.7374 203.889 21.7542C204.024 21.855 204.125 21.9979 204.192 22.1829C204.276 22.3678 204.335 22.5779 204.369 22.8133C204.419 23.0486 204.453 23.2924 204.469 23.5446C204.486 23.7799 204.503 23.9985 204.52 24.2002C204.553 24.6541 204.57 25.1416 204.57 25.6627C204.587 26.1839 204.587 26.705 204.57 27.2262C204.57 27.7473 204.57 28.2516 204.57 28.7392C204.57 29.2267 204.587 29.6638 204.621 30.0504C205.209 30.0504 205.73 30.0504 206.184 30.0504C206.655 30.0672 207.184 30.0336 207.773 29.9496C207.739 29.4452 207.722 28.8653 207.722 28.2096C207.739 27.5372 207.756 26.8479 207.773 26.1419C207.79 25.419 207.806 24.6961 207.823 23.9732C207.84 23.2335 207.84 22.5359 207.823 21.8803C207.975 21.7626 208.134 21.6785 208.302 21.6281C208.487 21.5608 208.664 21.5272 208.832 21.5272C209.017 21.5272 209.185 21.544 209.336 21.5777C209.488 21.6113 209.614 21.6533 209.714 21.7037C209.731 21.7206 209.748 21.729 209.765 21.729C209.782 21.729 209.799 21.7374 209.815 21.7542C209.95 21.855 210.051 21.9979 210.118 22.1829C210.202 22.3678 210.261 22.5779 210.294 22.8133C210.345 23.0486 210.378 23.2924 210.395 23.5446C210.412 23.7799 210.429 23.9985 210.446 24.2002C210.479 24.6541 210.496 25.1416 210.496 25.6627C210.513 26.1839 210.513 26.705 210.496 27.2262C210.496 27.7473 210.496 28.2516 210.496 28.7392C210.496 29.2267 210.513 29.6638 210.547 30.0504C211.135 30.0504 211.656 30.0504 212.11 30.0504C212.581 30.0672 213.11 30.0336 213.699 29.9496C213.665 29.378 213.657 28.714 213.673 27.9575C213.69 27.201 213.707 26.4192 213.724 25.6123C213.741 24.7886 213.749 23.9816 213.749 23.1915C213.766 22.3846 213.758 21.6449 213.724 20.9725C213.707 20.3 213.648 19.7284 213.547 19.2577C213.463 18.7702 213.337 18.4508 213.169 18.2995C212.816 17.9969 212.421 17.7868 211.984 17.6691C211.547 17.5514 211.093 17.501 210.622 17.5178C210.168 17.5346 209.723 17.6187 209.286 17.77C208.849 17.9213 208.454 18.123 208.101 18.3752C208.017 18.4424 207.916 18.5096 207.798 18.5769C207.68 18.6273 207.579 18.6778 207.495 18.7282C207.411 18.5265 207.327 18.3836 207.243 18.2995C206.89 17.9969 206.495 17.7868 206.058 17.6691C205.621 17.5514 205.167 17.501 204.696 17.5178C204.242 17.5346 203.797 17.6187 203.36 17.77C202.923 17.9213 202.528 18.123 202.175 18.3752C202.091 18.4424 201.981 18.5096 201.847 18.5769C201.729 18.6441 201.628 18.703 201.544 18.7534Z" fill="#212529"/>
  <path d="M179.277 17.8433H166.668V19.9446H179.277V17.8433Z" fill="#212529"/>
  <path d="M193.986 17.8433H181.378V19.9446H193.986V17.8433Z" fill="#212529"/>
  <path d="M168.77 19.9448H166.668V22.0462H168.77V19.9448Z" fill="#212529"/>
  <path d="M172.972 19.9448H168.77V22.0462H172.972V19.9448Z" fill="white"/>
  <path d="M179.277 19.9448H172.972V22.0462H179.277V19.9448Z" fill="#212529"/>
  <path d="M183.479 19.9448H181.378V22.0462H183.479V19.9448Z" fill="#212529"/>
  <path d="M187.682 19.9448H183.479V22.0462H187.682V19.9448Z" fill="white"/>
  <path d="M193.986 19.9448H187.682V22.0462H193.986V19.9448Z" fill="#212529"/>
  <path d="M168.77 22.0459H160.364V24.1473H168.77V22.0459Z" fill="#212529"/>
  <path d="M172.972 22.0459H168.77V24.1473H172.972V22.0459Z" fill="white"/>
  <path d="M183.479 22.0459H172.972V24.1473H183.479V22.0459Z" fill="#212529"/>
  <path d="M187.682 22.0459H183.479V24.1473H187.682V22.0459Z" fill="white"/>
  <path d="M193.986 22.0459H187.682V24.1473H193.986V22.0459Z" fill="#212529"/>
  <path d="M162.465 24.1475H160.364V26.2488H162.465V24.1475Z" fill="#212529"/>
  <path d="M168.77 24.1475H166.668V26.2488H168.77V24.1475Z" fill="#212529"/>
  <path d="M172.972 24.1475H168.77V26.2488H172.972V24.1475Z" fill="white"/>
  <path d="M179.277 24.1475H172.972V26.2488H179.277V24.1475Z" fill="#212529"/>
  <path d="M183.479 24.1475H181.378V26.2488H183.479V24.1475Z" fill="#212529"/>
  <path d="M187.682 24.1475H183.479V26.2488H187.682V24.1475Z" fill="white"/>
  <path d="M193.986 24.1475H187.682V26.2488H193.986V24.1475Z" fill="#212529"/>
  <path d="M162.465 26.2485H160.364V28.3499H162.465V26.2485Z" fill="#212529"/>
  <path d="M168.77 26.2485H166.668V28.3499H168.77V26.2485Z" fill="#212529"/>
  <path d="M172.972 26.2485H168.77V28.3499H172.972V26.2485Z" fill="white"/>
  <path d="M179.277 26.2485H172.972V28.3499H179.277V26.2485Z" fill="#212529"/>
  <path d="M183.479 26.2485H181.378V28.3499H183.479V26.2485Z" fill="#212529"/>
  <path d="M187.682 26.2485H183.479V28.3499H187.682V26.2485Z" fill="white"/>
  <path d="M193.986 26.2485H187.682V28.3499H193.986V26.2485Z" fill="#212529"/>
  <path d="M179.277 28.3501H166.668V30.4515H179.277V28.3501Z" fill="#212529"/>
  <path d="M193.986 28.3501H181.378V30.4515H193.986V28.3501Z" fill="#212529"/>
</svg>
