<svg viewBox="0 0 20 20" fill="none" xmlns="http://www.w3.org/2000/svg">
  <path fill-rule="evenodd" clip-rule="evenodd" d="M12.8799 1.38745L12.8799 3.31701L16.7199 3.3075V7.14746H18.6399V12.9075H16.7199V16.7475H12.8799V18.6674H7.11993V16.7475H3.27997L3.27992 12.9075H1.35992V7.14746L3.27997 7.1475V3.3075L7.11993 3.30745L7.11997 3.32186L7.13439 3.30745H7.11993V1.38745H12.8799ZM10.8334 9.16683V14.1668H9.16669V9.16683H10.8334ZM10.5942 7.26017C10.4342 7.42017 10.2361 7.50017 10 7.50017C9.76447 7.50072 9.56669 7.421 9.40669 7.261C9.24669 7.101 9.16669 6.90294 9.16669 6.66683C9.16613 6.43128 9.24586 6.2335 9.40586 6.0735C9.56586 5.9135 9.76391 5.8335 10 5.8335C10.2356 5.83294 10.4334 5.91267 10.5934 6.07267C10.7534 6.23267 10.8334 6.43072 10.8334 6.66683C10.8339 6.90239 10.7542 7.10017 10.5942 7.26017Z" fill="black"/>
</svg>
