<svg viewBox="0 0 81 38" fill="none" xmlns="http://www.w3.org/2000/svg">
<path fill-rule="evenodd" clip-rule="evenodd" d="M80.3 14.83H78.19V12.71H73.98V10.59H71.87V8.47H67.66V6.35H63.45V4.23H61.34V2.12H57.13V0H0V37.01H80.3V14.83ZM40.04 14.08C40.45 14.02 40.9 14.01 41.4 14.04C41.89 14.06 42.34 14.07 42.74 14.06C42.76 14.44 42.91 14.72 43.18 14.91C43.46 15.1 43.76 15.19 44.06 15.19C44.38 15.18 44.65 15.07 44.87 14.87C45.1 14.67 45.19 14.37 45.12 13.95C45.08 13.67 44.98 13.45 44.8 13.28C44.62 13.1 44.41 12.96 44.17 12.86C43.94 12.75 43.68 12.68 43.4 12.63C43.2391 12.5955 43.0815 12.5643 42.931 12.5346L42.9309 12.5345C42.8195 12.5125 42.7121 12.4913 42.61 12.47C42.38 12.42 42.16 12.35 41.96 12.24C41.76 12.13 41.58 12.01 41.41 11.87C40.87 11.35 40.52 10.78 40.35 10.16C40.2 9.54 40.19 8.93 40.33 8.35C40.47 7.76 40.74 7.23 41.12 6.75C41.52 6.27 42 5.91 42.56 5.68C42.84 5.56 43.15 5.49 43.49 5.45C43.83 5.4 44.17 5.39 44.51 5.41C44.86 5.42 45.2 5.47 45.53 5.55C45.87 5.63 46.18 5.74 46.46 5.87C47.02 6.16 47.46 6.6 47.76 7.17C48.07 7.75 48.14 8.47 47.97 9.35H47.95C47.54 9.42 47.1 9.47 46.63 9.49C46.16 9.5 45.72 9.45 45.31 9.33C45.38 9.01 45.31 8.75 45.12 8.54C44.92 8.33 44.68 8.19 44.4 8.14C44.12 8.08 43.84 8.11 43.57 8.23C43.31 8.35 43.16 8.57 43.11 8.9C43.09 8.98 43.07 9.06 43.07 9.15L43.0737 9.17623V9.17627C43.0826 9.23968 43.0925 9.30984 43.11 9.38C43.2 9.66 43.36 9.85 43.57 9.94C43.78 10.03 44.01 10.1 44.26 10.13C44.88 10.2 45.46 10.4 45.99 10.73C46.53 11.06 46.97 11.48 47.31 11.98C47.52 12.25 47.68 12.54 47.79 12.86C47.9 13.17 47.95 13.48 47.97 13.81C47.99 14.14 47.97 14.47 47.9 14.81C47.84 15.14 47.74 15.46 47.6 15.76C47.46 16.12 47.27 16.43 47.04 16.69C46.81 16.95 46.54 17.16 46.23 17.32C45.94 17.48 45.61 17.61 45.26 17.69C44.92 17.76 44.57 17.79 44.2 17.78C43.68 17.77 43.17 17.68 42.65 17.52C42.15 17.34 41.69 17.1 41.29 16.8C40.89 16.49 40.57 16.13 40.34 15.69C40.11 15.24 40.01 14.74 40.04 14.18V14.08ZM5.61 7.7C5.63 6.9 5.67 6.13 5.73 5.38C5.85 5.36 5.97 5.34 6.1 5.33C6.24 5.32 6.38 5.31 6.52 5.31C6.59 5.31 6.71 5.31 6.87 5.33C7.03 5.33 7.2 5.34 7.36 5.37C7.52 5.38 7.67 5.4 7.78 5.42C7.91 5.44 7.97 5.47 7.97 5.49C8.05 5.7 8.13 5.88 8.2 6.02C8.24825 6.1165 8.29175 6.213 8.33377 6.30622C8.35271 6.34825 8.37136 6.38961 8.39 6.43C8.46 6.56 8.53 6.71 8.6 6.87C8.68 7.02 8.78 7.22 8.88 7.47C8.89453 7.5136 8.93019 7.5836 8.97929 7.68L8.97929 7.68001C8.99776 7.71627 9.01813 7.75627 9.04 7.8C9.12 7.96 9.22 8.16 9.32 8.38C9.43 8.59 9.54 8.82 9.65 9.07C9.72344 9.21077 9.7894 9.34779 9.85244 9.47877C9.89241 9.5618 9.9312 9.64241 9.97 9.72C10.08 9.91 10.16 10.07 10.23 10.21C10.3 10.34 10.34 10.4 10.35 10.4C10.39 10.38 10.41 10.26 10.44 10.05C10.47 9.84 10.48 9.63 10.48 9.43C10.48 8.96 10.47 8.53 10.44 8.13C10.43 7.72 10.42 7.3 10.42 6.88V6.14L10.4213 6.10743C10.4309 5.85744 10.4408 5.59749 10.46 5.31C10.86 5.24 11.28 5.2 11.73 5.2C12.18 5.2 12.55 5.24 12.89 5.31V10.98C12.9 11.47 12.91 11.97 12.91 12.48V13.99V13.99C12.91 14.33 12.91 14.66 12.89 14.98V16.65C12.9 16.88 12.91 17.12 12.91 17.35V17.7C12.91 17.7 12.83 17.73 12.75 17.75C12.67 17.77 12.53 17.79 12.33 17.79C12.1 17.79 11.83 17.77 11.52 17.74L11.4001 17.7322L11.4 17.7322C11.1398 17.7151 10.9098 17.7 10.71 17.7C10.32 16.83 9.94 15.99 9.55 15.18C9.17 14.36 8.85 13.57 8.58 12.82L8.4 12.29C8.38676 12.2556 8.37422 12.2219 8.36201 12.189L8.362 12.189C8.32811 12.0978 8.29676 12.0135 8.26 11.94C8.22 11.82 8.2 11.76 8.17 11.76C8.16 11.76 8.14 11.9 8.12 12.18C8.11742 12.2521 8.11485 12.3296 8.1121 12.4121L8.11209 12.4124C8.10418 12.6503 8.09484 12.9309 8.08 13.25L8.07613 13.4185L8.07613 13.4186C8.06727 13.8064 8.05743 14.2368 8.04 14.69V17.01C8.04 17.26 8.04 17.48 8.06 17.68C7.93 17.72 7.8 17.74 7.67 17.75C7.54 17.76 7.41 17.77 7.28 17.77C7 17.77 6.71 17.75 6.42 17.72C6.14 17.68 5.86 17.67 5.59 17.67V16.44C5.59 15.32 5.58 14.26 5.55 13.25C5.54 12.24 5.53 11.18 5.53 10.08C5.53 9.27 5.54 8.47 5.57 7.69L5.61 7.7ZM13.04 23.32H13.02C12.61 23.39 12.17 23.44 11.7 23.46C11.23 23.47 10.79 23.42 10.38 23.3C10.45 22.98 10.38 22.72 10.19 22.51C9.99 22.3 9.75 22.16 9.47 22.1C9.19 22.04 8.91 22.07 8.64 22.19C8.38 22.31 8.23 22.53 8.18 22.86C8.16 22.94 8.14 23.02 8.14 23.11L8.14371 23.1363C8.15262 23.1997 8.16246 23.2699 8.18 23.34C8.27 23.62 8.43 23.81 8.64 23.9C8.85 23.99 9.08 24.06 9.33 24.09C9.95 24.16 10.53 24.36 11.06 24.69C11.6 25.02 12.04 25.44 12.38 25.94C12.59 26.21 12.75 26.5 12.86 26.82C12.97 27.13 13.02 27.44 13.04 27.77C13.06 28.1 13.04 28.43 12.97 28.77C12.91 29.1 12.81 29.42 12.67 29.72C12.53 30.08 12.34 30.39 12.11 30.65C11.88 30.91 11.61 31.12 11.3 31.28C11.01 31.44 10.68 31.57 10.33 31.65C9.99 31.72 9.64 31.75 9.27 31.74C8.75 31.73 8.24 31.64 7.72 31.48C7.22 31.3 6.76 31.06 6.36 30.76C5.96 30.45 5.64 30.09 5.41 29.65C5.18 29.2 5.08 28.7 5.11 28.14V28.03C5.52 27.97 5.97 27.96 6.47 27.99C6.96 28.01 7.41 28.02 7.81 28.01C7.83 28.39 7.98 28.67 8.25 28.86C8.53 29.05 8.83 29.14 9.13 29.14C9.45 29.13 9.72 29.02 9.94 28.82C10.17 28.62 10.26 28.32 10.19 27.9C10.15 27.62 10.05 27.4 9.87 27.23C9.69 27.05 9.48 26.91 9.24 26.81C9.01 26.7 8.75 26.63 8.47 26.58C8.30913 26.5455 8.15157 26.5144 8.0011 26.4846L8.00088 26.4845C7.88952 26.4625 7.78205 26.4413 7.68 26.42C7.45 26.37 7.23 26.3 7.03 26.19C6.83 26.08 6.65 25.96 6.48 25.82C5.94 25.3 5.59 24.73 5.42 24.11C5.27 23.49 5.26 22.88 5.4 22.3C5.54 21.71 5.81 21.18 6.19 20.7C6.59 20.22 7.07 19.86 7.63 19.63C7.91 19.51 8.22 19.44 8.56 19.4C8.9 19.35 9.24 19.34 9.58 19.36C9.93 19.37 10.27 19.42 10.6 19.5C10.94 19.58 11.25 19.69 11.53 19.82C12.09 20.11 12.53 20.55 12.83 21.12C13.14 21.7 13.21 22.42 13.04 23.3V23.32ZM21.06 20.77C21.06 21.27 21.03 21.74 20.97 22.16C20.75 22.11 20.47 22.1 20.14 22.11C19.9547 22.1156 19.7346 22.1244 19.4799 22.1345L19.4796 22.1346C19.2809 22.1425 19.061 22.1512 18.82 22.16H18.77C18.77 22.16 18.77 22.18 18.75 22.2V22.22C18.7453 22.2481 18.7406 22.2828 18.7349 22.3251L18.7349 22.3253C18.7284 22.3733 18.7206 22.431 18.71 22.5V24.12C18.7129 24.2413 18.7158 24.3735 18.7189 24.5167L18.719 24.519C18.7266 24.8712 18.7358 25.2903 18.75 25.78L18.7561 26.2C18.7644 26.7805 18.774 27.4505 18.79 28.21C18.7972 28.8909 18.8097 29.661 18.8237 30.5203C18.829 30.8473 18.8345 31.1872 18.84 31.54V31.58C18.63 31.62 18.39 31.64 18.14 31.65H16.64C16.39 31.65 16.16 31.67 15.95 31.7C15.94 31.65 15.94 31.44 15.95 31.07C15.96 30.69 15.97 30.14 15.97 29.4C15.98 28.65 15.97 27.69 15.95 26.53C15.94 25.37 15.9 23.96 15.83 22.32L15.81 22.3C15.67 22.23 15.49 22.19 15.28 22.18C15.07 22.16 14.86 22.14 14.65 22.14L14.5928 22.1373C14.4053 22.1283 14.2335 22.12 14.07 22.12C13.89 22.12 13.77 22.11 13.7 22.08C13.68 22.03 13.65 21.92 13.63 21.73L13.6251 21.6351L13.6251 21.635C13.6165 21.4674 13.6067 21.2777 13.59 21.06V20.2C13.59 19.89 13.6 19.6 13.63 19.32C13.63 19.31 13.63 19.3 13.61 19.3V19.28C14.81 19.27 16.04 19.26 17.31 19.26C18.59 19.25 19.83 19.31 21.04 19.44C21.06 19.83 21.07 20.27 21.06 20.78V20.77ZM21.67 10.11C21.63 10.73 21.62 11.34 21.63 11.92C21.64 12.51 21.63 13.11 21.58 13.72L21.53 14.3C21.51 14.71 21.44 15.13 21.34 15.55C21.23 15.96 21.08 16.34 20.86 16.68C20.66 16.96 20.4 17.19 20.07 17.37C19.75 17.53 19.41 17.66 19.05 17.76C18.72 17.85 18.39 17.91 18.05 17.94C17.72 17.96 17.39 17.96 17.05 17.94C16.8 17.92 16.56 17.88 16.33 17.83C16.11 17.79 15.89 17.73 15.68 17.64C15.48 17.55 15.3 17.43 15.13 17.29C14.97 17.14 14.83 16.94 14.73 16.71C14.57 16.42 14.45 16.11 14.4 15.78C14.35 15.44 14.32 15.1 14.31 14.76L14.25 13.385L14.19 12.01C14.15 11.08 14.17 10.16 14.23 9.23C14.24 8.7 14.31 8.17 14.42 7.65C14.55 7.11 14.8 6.63 15.16 6.22C15.28 6.1 15.41 6 15.56 5.9C15.95 5.71 16.36 5.58 16.81 5.49C17.27 5.4 17.72 5.36 18.17 5.38C18.63 5.4 19.07 5.49 19.49 5.63C19.92 5.76 20.31 5.95 20.65 6.21C20.99 6.52 21.23 6.87 21.37 7.28C21.45 7.46 21.51 7.64 21.55 7.83C21.6 8.01 21.63 8.19 21.66 8.38C21.68 8.67 21.7 8.97 21.7 9.26C21.71 9.54 21.71 9.83 21.7 10.12L21.67 10.11ZM28.97 31.66C28.47 31.68 27.95 31.68 27.42 31.64H27.4L27.3487 31.5243L27.3486 31.5242C27.2402 31.2797 27.1149 30.9971 26.96 30.67C26.78 30.29 26.59 29.9 26.38 29.49C26.17 29.08 25.94 28.67 25.69 28.28C25.44 27.88 25.2 27.53 24.95 27.22L24.91 27.17C24.87 27.44 24.86 27.77 24.86 28.17V28.1701C24.86 28.5701 24.86 28.96 24.88 29.38C24.8909 29.6039 24.9048 29.8219 24.9185 30.0355L24.9185 30.0358C24.9298 30.2132 24.9409 30.3876 24.95 30.56C24.959 30.7312 24.968 30.8842 24.9761 31.0216L24.9761 31.0217C24.986 31.1892 24.9945 31.3337 25 31.46C24.8 31.54 24.54 31.6 24.21 31.62L24.1818 31.6218C23.8718 31.6412 23.5706 31.66 23.26 31.66C22.94 31.67 22.66 31.67 22.4 31.66C22.15 31.65 22 31.65 21.94 31.66C21.96 31.66 21.98 31.5 21.99 31.18C22 30.85 22.01 30.42 22.01 29.89V28.08C22.01 27.39 22.01 26.68 21.99 25.95C21.99 25.21 21.98 24.48 21.95 23.77C21.94 23.04 21.93 22.38 21.91 21.78C21.9 21.17 21.88 20.65 21.86 20.23C21.85 19.8 21.83 19.5 21.81 19.35C22.47 19.26 23.19 19.17 23.98 19.09C24.77 19.01 25.59 19.01 26.45 19.11C27.14 19.15 27.76 19.34 28.32 19.71C28.87 20.07 29.3 20.53 29.61 21.07C29.92 21.61 30.07 22.21 30.09 22.87C30.11 23.52 29.94 24.14 29.58 24.75C29.36 25.17 29.06 25.52 28.68 25.81C28.32 26.09 27.85 26.25 27.29 26.29H27.2V26.31C27.45 26.74 27.72 27.18 28.01 27.61C28.3 28.03 28.59 28.46 28.87 28.9C29.15 29.33 29.42 29.78 29.68 30.24C29.94 30.69 30.16 31.15 30.33 31.63H30.35C29.94 31.63 29.48 31.65 28.98 31.68L28.97 31.66ZM30.22 15.04C30.13 15.81 29.83 16.47 29.34 17.01C28.85 17.55 28.18 17.86 27.33 17.94C26.84 17.99 26.33 17.96 25.8 17.87C25.27 17.79 24.79 17.64 24.36 17.41C23.94 17.18 23.58 16.87 23.29 16.49C23.01 16.1 22.86 15.64 22.83 15.1C22.83 13.55 22.85 11.99 22.88 10.42C22.92 8.85 22.92 7.29 22.9 5.74L22.88 5.72H22.9C23.08 5.72 23.27 5.72 23.48 5.7C23.7 5.69 23.93 5.68 24.15 5.68C24.37 5.68 24.59 5.69 24.8 5.72C25.01 5.73 25.2 5.76 25.38 5.81V5.83C25.25 8.67 25.3 11.55 25.54 14.48C25.62 14.76 25.77 14.97 25.98 15.1C26.2 15.23 26.43 15.29 26.67 15.28C26.91 15.27 27.12 15.19 27.32 15.03C27.52 14.88 27.65 14.67 27.71 14.4C27.77 12.99 27.8 11.56 27.8 10.1C27.81 8.64 27.84 7.24 27.87 5.87C27.97 5.86333 28.0922 5.85222 28.2308 5.83963C28.3 5.83333 28.3733 5.82667 28.45 5.82C28.7 5.78 28.94 5.76 29.19 5.75C29.44 5.74 29.67 5.75 29.89 5.77C30.11 5.79 30.29 5.85 30.44 5.93C30.51 7.43 30.53 8.95 30.51 10.49C30.49 12.02 30.39 13.54 30.23 15.05L30.22 15.04ZM31.77 13.26C31.76 12.25 31.75 11.19 31.75 10.09C31.75 9.28 31.76 8.48 31.79 7.7C31.81 6.9 31.85 6.13 31.91 5.38C32.03 5.36 32.15 5.34 32.28 5.33C32.42 5.32 32.56 5.31 32.7 5.31C32.77 5.31 32.89 5.31 33.05 5.33C33.21 5.33 33.38 5.34 33.54 5.37C33.7 5.38 33.85 5.4 33.96 5.42C34.09 5.44 34.15 5.47 34.15 5.49C34.23 5.7 34.31 5.88 34.38 6.02C34.4282 6.11648 34.4717 6.21297 34.5137 6.30617L34.5139 6.30655C34.5328 6.34846 34.5514 6.38971 34.57 6.43C34.64 6.56 34.71 6.71 34.78 6.87C34.86 7.02 34.96 7.22 35.06 7.47C35.0745 7.5136 35.1102 7.5836 35.1593 7.68001L35.1593 7.68005C35.1778 7.7163 35.1981 7.75628 35.22 7.8C35.3 7.96 35.4 8.16 35.5 8.38C35.61 8.59 35.72 8.82 35.83 9.07C35.9035 9.21078 35.9694 9.34781 36.0325 9.4788C36.0724 9.56182 36.1112 9.64242 36.15 9.72C36.26 9.90998 36.34 10.07 36.41 10.21L36.41 10.21C36.48 10.34 36.52 10.4 36.53 10.4C36.57 10.38 36.59 10.26 36.62 10.05C36.64 9.84 36.66 9.63 36.66 9.43C36.66 8.96 36.65 8.53 36.62 8.13C36.61 7.72 36.6 7.3 36.6 6.88V6.14L36.6012 6.10781C36.6108 5.8577 36.6208 5.59764 36.64 5.31C37.04 5.24 37.46 5.2 37.91 5.2C38.36 5.2 38.73 5.24 39.07 5.31V10.98C39.08 11.47 39.09 11.97 39.09 12.48V13.99C39.09 14.33 39.09 14.66 39.07 14.98V16.65C39.08 16.88 39.09 17.12 39.09 17.35V17.7C39.09 17.7 39.01 17.73 38.93 17.75C38.85 17.77 38.71 17.79 38.51 17.79C38.28 17.79 38.01 17.77 37.7 17.74L37.5801 17.7322L37.58 17.7322C37.3198 17.7151 37.0898 17.7 36.89 17.7C36.5 16.83 36.12 15.99 35.73 15.18C35.35 14.36 35.03 13.57 34.76 12.82L34.58 12.29C34.5668 12.2557 34.5543 12.2221 34.5422 12.1894L34.542 12.189C34.5081 12.0979 34.4768 12.0135 34.44 11.94C34.4 11.82 34.38 11.76 34.35 11.76C34.34 11.76 34.32 11.9 34.3 12.18C34.2974 12.2521 34.2949 12.3294 34.2921 12.4119L34.2921 12.4122C34.2842 12.6501 34.2748 12.9308 34.26 13.25L34.2561 13.4183C34.2473 13.8062 34.2374 14.2367 34.22 14.69V17.01C34.22 17.26 34.22 17.48 34.24 17.68C34.11 17.72 33.98 17.74 33.85 17.75C33.72 17.76 33.59 17.77 33.46 17.77C33.18 17.77 32.89 17.75 32.6 17.72C32.32 17.68 32.04 17.67 31.77 17.67V16.44C31.77 15.32 31.76 14.26 31.73 13.25L31.77 13.26ZM65.82 25.45V31.8H53.18V25.45H51.07V31.8H38.43V25.45H34.22V29.69H32.11V23.34H38.43V19.1H51.07V23.34H53.18V19.1H65.82V25.45ZM75.82 26.07L75.77 31.69C75.59 31.67 75.4 31.65 75.19 31.65H74.56C74.35 31.65 74.14 31.65 73.94 31.67H73.45C73.43 31.17 73.41 30.62 73.4 30.03C73.4 29.44 73.4 28.84 73.38 28.23C73.38 27.62 73.36 27.02 73.33 26.43C73.31 25.84 73.27 25.3 73.21 24.81C73.13 24.94 73.03 25.14 72.93 25.43C72.8382 25.6554 72.7533 25.8878 72.6637 26.1331L72.61 26.28C72.5 26.57 72.4 26.83 72.31 27.05C72.22 27.27 72.15 27.38 72.1 27.38C72.04 27.38 71.97 27.32 71.89 27.2C71.82 27.07 71.74 26.91 71.66 26.72C71.6172 26.6039 71.5707 26.4842 71.5228 26.3606L71.5225 26.3599C71.4921 26.2815 71.461 26.2015 71.43 26.12C71.3566 25.9272 71.2915 25.7428 71.2349 25.5824L71.22 25.54L71.1811 25.4291L71.181 25.4287C71.1375 25.3042 71.0988 25.1931 71.06 25.1L71.01 24.92C70.92 26.02 70.88 27.14 70.9 28.27C70.94 29.4 70.99 30.51 71.06 31.6C70.68 31.66 70.27 31.68 69.83 31.67L69.71 31.6673C69.3069 31.6583 68.9369 31.65 68.6 31.65C68.58 31.65 68.56 31.63 68.55 31.6C68.5433 31.5667 68.5367 31.5067 68.5271 31.4201L68.527 31.4199C68.5243 31.3954 68.5213 31.3687 68.5181 31.34C68.5156 31.3179 68.5129 31.2946 68.51 31.27C68.506 31.1986 68.5021 31.1145 68.4975 31.0173L68.4974 31.0152C68.4904 30.8678 68.482 30.6901 68.47 30.48V26.87C68.48 26 68.49 24.97 68.49 23.77L68.4948 23.1901C68.5034 22.1279 68.5131 20.9285 68.53 19.58C68.68 19.53 68.86 19.5 69.06 19.49C69.26 19.48 69.46 19.48 69.68 19.49C69.89 19.49 70.1 19.49 70.31 19.51C70.52 19.51 70.73 19.51 70.93 19.49H70.95C71.06 19.61 71.16 19.79 71.27 20.04C71.38 20.27 71.48 20.53 71.57 20.8C71.6164 20.9391 71.6627 21.0755 71.7077 21.2079L71.7086 21.2105C71.7506 21.3342 71.7915 21.4544 71.83 21.57C71.92 21.82 72.02 22.01 72.11 22.15C72.15 22.19 72.18 22.2 72.22 22.2C72.26 22.21 72.31 22.1 72.38 21.87C72.46 21.64 72.54 21.37 72.63 21.06C72.72 20.74 72.82 20.43 72.93 20.13C73.05 19.82 73.16 19.6 73.26 19.46C73.34 19.47 73.49 19.47 73.7 19.46L73.7551 19.4575L73.7553 19.4575C73.9599 19.4483 74.18 19.4383 74.4 19.42C74.66 19.41 74.92 19.4 75.17 19.4L75.29 19.3955C75.5088 19.3872 75.6988 19.38 75.86 19.38C75.81 20.51 75.81 21.62 75.86 22.73C75.91 23.82 75.9 24.93 75.84 26.06L75.82 26.07ZM26.5896 21.8799C26.3296 21.6499 25.9996 21.5399 25.5996 21.5599C25.1996 21.5699 24.7996 21.6599 24.3896 21.8199C24.3996 21.9699 24.4096 22.1499 24.4096 22.3499C24.4196 22.5399 24.4296 22.7299 24.4296 22.9299V23.5099C24.4396 23.6999 24.4596 23.8599 24.4796 23.9899H24.4996C24.7696 24.0099 25.0596 24.0299 25.3796 24.0399C25.6996 24.0499 25.9996 24.0399 26.2796 23.9899C26.4996 23.9399 26.6696 23.8299 26.7896 23.6599C26.9196 23.4699 26.9996 23.2699 27.0196 23.0599C27.0396 22.8399 27.0196 22.6199 26.9496 22.4099C26.8797 22.1899 26.7596 22.0099 26.5996 21.8799H26.5896ZM46.8604 27.57H42.6504V29.69H48.9704V25.45H46.8604V27.57ZM61.6096 25.45H63.7096V29.69H57.3896V27.57H61.6096V25.45ZM19.5 9.37995C19.52 9.57995 19.53 9.79995 19.54 10.03L19.53 10.02C19.56 10.24 19.57 10.37 19.57 10.37L19.61 11.57V12.42C19.61 12.4278 19.6085 12.4478 19.606 12.48C19.6022 12.5302 19.5961 12.6102 19.59 12.72C19.59 12.8835 19.5817 13.0717 19.5727 13.2772C19.5718 13.2979 19.5709 13.3189 19.57 13.34C19.54 13.59 19.53 13.79 19.53 13.94C19.54 14.08 19.54 14.2 19.53 14.31C19.52 14.42 19.49 14.52 19.44 14.61C19.39 14.69 19.32 14.8 19.21 14.94C19.04 15.14 18.82 15.29 18.56 15.38C18.31 15.47 18.05 15.5 17.79 15.49C17.53 15.47 17.29 15.39 17.07 15.26C16.85 15.13 16.68 14.94 16.56 14.71C16.44 14.33 16.37 13.92 16.35 13.5C16.33 13.06 16.29 12.64 16.23 12.2299C16.21 11.74 16.2 11.24 16.21 10.75C16.24 10.26 16.3 9.78995 16.39 9.33995C16.53 8.84995 16.81 8.44995 17.22 8.12995C17.41 7.98995 17.62 7.88995 17.87 7.82995C18.11 7.76995 18.36 7.78995 18.59 7.87995C18.86 8.00995 19.07 8.20995 19.22 8.47995C19.38 8.74995 19.48 9.04995 19.5 9.37995Z" fill="#212529"/>
</svg>
