<svg viewBox="0 0 20 20" fill="none" xmlns="http://www.w3.org/2000/svg">
  <path d="M2 13.5556H6.44444V11.7778H2V13.5556ZM7.77778 13.5556H12.2222V11.7778H7.77778V13.5556ZM13.5556 13.5556H18V11.7778H13.5556V13.5556ZM2 17.1111H3.77778V15.3334H2V17.1111ZM5.55556 17.1111H7.33333V15.3334H5.55556V17.1111ZM9.11111 17.1111H10.8889V15.3334H9.11111V17.1111ZM12.6667 17.1111H14.4444V15.3334H12.6667V17.1111ZM16.2222 17.1111H18V15.3334H16.2222V17.1111ZM2 10H9.11111V8.22225H2V10ZM10.8889 10H18V8.22225H10.8889V10ZM2 2.88892V6.44447H18V2.88892H2Z" fill="#212529"/>
</svg>
