<svg viewBox="0 0 40 40" fill="none" xmlns="http://www.w3.org/2000/svg">
  <rect x="23.0029" y="33.0864" width="3.46401" height="3.46401" fill="#212529"/>
  <rect x="26.4658" y="33.0864" width="3.46401" height="3.46401" fill="#212529"/>
  <rect x="29.9316" y="33.0864" width="3.46401" height="3.46401" fill="#212529"/>
  <rect x="33.3945" y="29.6226" width="3.46401" height="3.46401" fill="#212529"/>
  <rect x="33.3945" y="26.1587" width="3.46401" height="3.46401" fill="#212529"/>
  <rect x="33.3945" y="22.6943" width="3.46401" height="3.46401" fill="#212529"/>
  <rect width="3.46401" height="3.46401" transform="matrix(1 0 0 -1 23.0029 7.21387)" fill="#212529"/>
  <rect width="3.46401" height="3.46401" transform="matrix(1 0 0 -1 26.4658 7.21387)" fill="#212529"/>
  <rect width="3.46401" height="3.46401" transform="matrix(1 0 0 -1 29.9316 7.21387)" fill="#212529"/>
  <rect width="3.46401" height="3.46401" transform="matrix(1 0 0 -1 33.3945 10.6772)" fill="#212529"/>
  <rect width="3.46401" height="3.46401" transform="matrix(1 0 0 -1 33.3945 14.1411)" fill="#212529"/>
  <rect width="3.46401" height="3.46401" transform="matrix(1 0 0 -1 33.3945 17.6055)" fill="#212529"/>
  <rect width="3.46401" height="3.46401" transform="matrix(-1 0 0 1 16.561 33.0859)" fill="#212529"/>
  <rect width="3.46401" height="3.46401" transform="matrix(-1 0 0 1 13.0981 33.0859)" fill="#212529"/>
  <rect width="3.46401" height="3.46401" transform="matrix(-1 0 0 1 9.63232 33.0859)" fill="#212529"/>
  <rect width="3.46401" height="3.46401" transform="matrix(-1 0 0 1 6.16943 29.6226)" fill="#212529"/>
  <rect width="3.46401" height="3.46401" transform="matrix(-1 0 0 1 6.16943 26.1587)" fill="#212529"/>
  <rect width="3.46401" height="3.46401" transform="matrix(-1 0 0 1 6.16943 22.6943)" fill="#212529"/>
  <rect x="16.561" y="7.21436" width="3.46401" height="3.46401" transform="rotate(180 16.561 7.21436)" fill="#212529"/>
  <rect x="13.0981" y="7.21436" width="3.46401" height="3.46401" transform="rotate(180 13.0981 7.21436)" fill="#212529"/>
  <rect x="9.63232" y="7.21436" width="3.46401" height="3.46401" transform="rotate(180 9.63232 7.21436)" fill="#212529"/>
  <rect x="6.16943" y="10.6777" width="3.46401" height="3.46401" transform="rotate(180 6.16943 10.6777)" fill="#212529"/>
  <rect x="6.16943" y="14.1416" width="3.46401" height="3.46401" transform="rotate(180 6.16943 14.1416)" fill="#212529"/>
  <rect x="6.16943" y="17.606" width="3.46401" height="3.46401" transform="rotate(180 6.16943 17.606)" fill="#212529"/>
  <rect x="10.8252" y="11.8691" width="17.5908" height="17.5908" fill="#212529"/>
  <rect width="3.46401" height="3.46401" transform="matrix(-1 0 0 1 10.3931 18.6348)" fill="#212529"/>
  <rect width="3.46401" height="3.46401" transform="matrix(-1 0 0 1 19.8647 18.6348)" fill="#212529"/>
  <rect width="3.46401" height="3.46401" transform="matrix(-1 0 0 1 29.3374 18.6348)" fill="#212529"/>
  <rect width="3.46401" height="3.46401" transform="matrix(-1 0 0 1 38.8086 18.6348)" fill="#212529"/>
  <rect width="3.46401" height="3.46401" transform="matrix(-1 0 0 1 6.92871 18.6348)" fill="#212529"/>
  <rect width="3.46401" height="3.46401" transform="matrix(-1 0 0 1 16.4014 18.6348)" fill="#212529"/>
  <rect width="3.46401" height="3.46401" transform="matrix(-1 0 0 1 25.873 18.6348)" fill="#212529"/>
  <rect width="3.46401" height="3.46401" transform="matrix(-1 0 0 1 35.3457 18.6348)" fill="#212529"/>
  <rect width="3.46401" height="3.46401" transform="matrix(-1 0 0 1 3.46436 18.6348)" fill="#212529"/>
  <rect width="3.46401" height="3.46401" transform="matrix(-1 0 0 1 12.936 18.6348)" fill="#212529"/>
  <rect width="3.46401" height="3.46401" transform="matrix(-1 0 0 1 22.4072 18.6348)" fill="#212529"/>
  <rect width="3.46401" height="3.46401" transform="matrix(-1 0 0 1 31.8799 18.6348)" fill="#212529"/>
</svg>
