<svg viewBox="0 0 44 44" fill="none" xmlns="http://www.w3.org/2000/svg">
<g clip-path="url(#clip0_337_108996)">
<rect width="3.16923" height="3.16923" transform="matrix(-1 0 0 1 22.0156 1)" fill="#F9D65F"/>
<rect width="3.16923" height="3.16923" transform="matrix(-1 0 0 1 22.0156 4.16943)" fill="#F9D65F"/>
<rect width="3.16923" height="3.16923" transform="matrix(-1 0 0 1 22.0156 7.33838)" fill="#F9D65F"/>
<rect width="3.16923" height="3.16923" transform="matrix(-1 0 0 1 22.0156 10.5078)" fill="#F9D65F"/>
<rect width="3.16923" height="3.16923" transform="matrix(-1 0 0 1 22.0156 16.8462)" fill="#F9D65F"/>
<rect width="3.16923" height="3.16923" transform="matrix(-1 0 0 1 22.0156 13.6768)" fill="#F9D65F"/>
<rect width="3.16923" height="3.16923" transform="matrix(-1 0 0 1 28.354 1)" fill="#F9D65F"/>
<rect width="3.16923" height="3.16923" transform="matrix(-1 0 0 1 28.354 4.16943)" fill="#F9D65F"/>
<rect width="3.16923" height="3.16923" transform="matrix(-1 0 0 1 28.354 7.33838)" fill="#F9D65F"/>
<rect width="3.16923" height="3.16923" transform="matrix(-1 0 0 1 28.354 10.5078)" fill="#F9D65F"/>
<rect width="3.16923" height="3.16923" transform="matrix(-1 0 0 1 28.354 16.8462)" fill="#F9D65F"/>
<rect width="3.16923" height="3.16923" transform="matrix(-1 0 0 1 28.354 13.6768)" fill="#F9D65F"/>
<rect width="3.16923" height="3.16923" transform="matrix(-1 0 0 1 25.1846 1)" fill="#F9D65F"/>
<rect width="3.16923" height="3.16923" transform="matrix(-1 0 0 1 25.1846 4.16943)" fill="#F9D65F"/>
<rect width="3.16923" height="3.16923" transform="matrix(-1 0 0 1 25.1846 7.33838)" fill="#F9D65F"/>
<rect width="3.16923" height="3.16923" transform="matrix(-1 0 0 1 25.1846 10.5078)" fill="#F9D65F"/>
<rect width="3.16923" height="3.16923" transform="matrix(-1 0 0 1 25.1846 16.8462)" fill="#F9D65F"/>
<rect width="3.16923" height="3.16923" transform="matrix(-1 0 0 1 25.1846 13.6768)" fill="#F9D65F"/>
<rect width="3.16923" height="3.16923" transform="matrix(-1 0 0 1 18.8462 4.16943)" fill="#F9D65F"/>
<rect width="3.16923" height="3.16923" transform="matrix(-1 0 0 1 18.8462 7.33838)" fill="white"/>
<rect width="3.16923" height="3.16923" transform="matrix(-1 0 0 1 18.8462 10.5078)" fill="#F9D65F"/>
<rect width="3.16923" height="3.16923" transform="matrix(-1 0 0 1 18.8462 16.8462)" fill="#F9D65F"/>
<rect width="3.16923" height="3.16923" transform="matrix(-1 0 0 1 18.8462 13.6768)" fill="#F9D65F"/>
<rect width="3.16923" height="3.16923" transform="matrix(-1 0 0 1 15.6768 4.16943)" fill="#F9D65F"/>
<rect width="3.16923" height="3.16923" transform="matrix(-1 0 0 1 15.6768 7.33838)" fill="#F9D65F"/>
<rect width="3.16923" height="3.16923" transform="matrix(-1 0 0 1 15.6768 10.5078)" fill="white"/>
<rect width="3.16923" height="3.16923" transform="matrix(-1 0 0 1 15.6768 16.8462)" fill="#F9D65F"/>
<rect width="3.16923" height="3.16923" transform="matrix(-1 0 0 1 15.6768 13.6768)" fill="#F9D65F"/>
<rect width="3.16923" height="3.16923" transform="matrix(-1 0 0 1 12.5078 7.33838)" fill="#F9D65F"/>
<rect width="3.16923" height="3.16923" transform="matrix(-1 0 0 1 12.5078 10.5078)" fill="#F9D65F"/>
<rect width="3.16923" height="3.16923" transform="matrix(-1 0 0 1 12.5078 16.8462)" fill="#F9D65F"/>
<rect width="3.16923" height="3.16923" transform="matrix(-1 0 0 1 12.5078 13.6768)" fill="white"/>
<rect width="3.16923" height="3.16923" transform="matrix(-1 0 0 1 37.8613 7.33838)" fill="#F9D65F"/>
<rect width="3.16923" height="3.16923" transform="matrix(-1 0 0 1 37.8613 10.5078)" fill="#F9D65F"/>
<rect width="3.16923" height="3.16923" transform="matrix(-1 0 0 1 37.8613 16.8462)" fill="#F9D65F"/>
<rect width="3.16923" height="3.16923" transform="matrix(-1 0 0 1 37.8613 13.6768)" fill="#F9D65F"/>
<rect width="3.16923" height="3.16923" transform="matrix(-1 0 0 1 9.33838 10.5078)" fill="#F9D65F"/>
<rect width="3.16923" height="3.16923" transform="matrix(-1 0 0 1 9.33838 16.8462)" fill="#F9D65F"/>
<rect width="3.16923" height="3.16923" transform="matrix(-1 0 0 1 9.33838 13.6768)" fill="#F9D65F"/>
<rect width="3.16923" height="3.16923" transform="matrix(-1 0 0 1 6.16943 16.8462)" fill="#F9D65F"/>
<rect width="3.16923" height="3.16923" transform="matrix(-1 0 0 1 44.2002 16.8462)" fill="#F9D65F"/>
<rect width="3.16923" height="3.16923" transform="matrix(-1 0 0 1 31.5229 4.16943)" fill="#F9D65F"/>
<rect width="3.16923" height="3.16923" transform="matrix(-1 0 0 1 31.5229 7.33838)" fill="#F9D65F"/>
<rect width="3.16923" height="3.16923" transform="matrix(-1 0 0 1 31.5229 10.5078)" fill="#F9D65F"/>
<rect width="3.16923" height="3.16923" transform="matrix(-1 0 0 1 31.5229 16.8462)" fill="#F9D65F"/>
<rect width="3.16923" height="3.16923" transform="matrix(-1 0 0 1 31.5229 13.6768)" fill="#F9D65F"/>
<rect width="3.16923" height="3.16923" transform="matrix(-1 0 0 1 34.6924 4.16943)" fill="#F9D65F"/>
<rect width="3.16923" height="3.16923" transform="matrix(-1 0 0 1 34.6924 7.33838)" fill="#F9D65F"/>
<rect width="3.16923" height="3.16923" transform="matrix(-1 0 0 1 34.6924 10.5078)" fill="#F9D65F"/>
<rect width="3.16923" height="3.16923" transform="matrix(-1 0 0 1 34.6924 16.8462)" fill="#F9D65F"/>
<rect width="3.16923" height="3.16923" transform="matrix(-1 0 0 1 34.6924 13.6768)" fill="#F9D65F"/>
<rect width="3.16923" height="3.16923" transform="matrix(-1 0 0 1 41.0308 10.5078)" fill="#F9D65F"/>
<rect width="3.16923" height="3.16923" transform="matrix(-1 0 0 1 41.0308 16.8462)" fill="#F9D65F"/>
<rect width="3.16923" height="3.16923" transform="matrix(-1 0 0 1 41.0308 13.6768)" fill="#F9D65F"/>
<rect x="22.0156" y="42.2002" width="3.16923" height="3.16923" transform="rotate(180 22.0156 42.2002)" fill="#F9D65F"/>
<rect x="22.0156" y="39.0308" width="3.16923" height="3.16923" transform="rotate(180 22.0156 39.0308)" fill="#F9D65F"/>
<rect x="22.0156" y="35.8613" width="3.16923" height="3.16923" transform="rotate(180 22.0156 35.8613)" fill="#F9D65F"/>
<rect x="22.0156" y="32.6924" width="3.16923" height="3.16923" transform="rotate(180 22.0156 32.6924)" fill="#F9D65F"/>
<rect x="22.0156" y="26.354" width="3.16923" height="3.16923" transform="rotate(180 22.0156 26.354)" fill="#F9D65F"/>
<rect x="22.0156" y="29.5229" width="3.16923" height="3.16923" transform="rotate(180 22.0156 29.5229)" fill="#F9D65F"/>
<rect x="22.0156" y="23.1846" width="3.16923" height="3.16923" transform="rotate(180 22.0156 23.1846)" fill="#F9D65F"/>
<rect x="28.354" y="42.2002" width="3.16923" height="3.16923" transform="rotate(180 28.354 42.2002)" fill="#F9D65F"/>
<rect x="28.354" y="39.0308" width="3.16923" height="3.16923" transform="rotate(180 28.354 39.0308)" fill="#F9D65F"/>
<rect x="28.354" y="35.8613" width="3.16923" height="3.16923" transform="rotate(180 28.354 35.8613)" fill="#F9D65F"/>
<rect x="28.354" y="32.6924" width="3.16923" height="3.16923" transform="rotate(180 28.354 32.6924)" fill="#F9D65F"/>
<rect x="28.354" y="26.354" width="3.16923" height="3.16923" transform="rotate(180 28.354 26.354)" fill="#F9D65F"/>
<rect x="28.354" y="29.5229" width="3.16923" height="3.16923" transform="rotate(180 28.354 29.5229)" fill="#F9D65F"/>
<rect x="28.354" y="23.1846" width="3.16923" height="3.16923" transform="rotate(180 28.354 23.1846)" fill="#F9D65F"/>
<rect x="25.1846" y="42.2002" width="3.16923" height="3.16923" transform="rotate(180 25.1846 42.2002)" fill="#F9D65F"/>
<rect x="25.1846" y="39.0308" width="3.16923" height="3.16923" transform="rotate(180 25.1846 39.0308)" fill="#F9D65F"/>
<rect x="25.1846" y="35.8613" width="3.16923" height="3.16923" transform="rotate(180 25.1846 35.8613)" fill="#F9D65F"/>
<rect x="25.1846" y="32.6924" width="3.16923" height="3.16923" transform="rotate(180 25.1846 32.6924)" fill="#F9D65F"/>
<rect x="25.1846" y="26.354" width="3.16923" height="3.16923" transform="rotate(180 25.1846 26.354)" fill="#F9D65F"/>
<rect x="25.1846" y="29.5229" width="3.16923" height="3.16923" transform="rotate(180 25.1846 29.5229)" fill="#F9D65F"/>
<rect x="25.1846" y="23.1846" width="3.16923" height="3.16923" transform="rotate(180 25.1846 23.1846)" fill="#F9D65F"/>
<rect x="18.8462" y="39.0308" width="3.16923" height="3.16923" transform="rotate(180 18.8462 39.0308)" fill="#F9D65F"/>
<rect x="18.8462" y="35.8613" width="3.16923" height="3.16923" transform="rotate(180 18.8462 35.8613)" fill="#F9D65F"/>
<rect x="18.8462" y="32.6924" width="3.16923" height="3.16923" transform="rotate(180 18.8462 32.6924)" fill="#F9D65F"/>
<rect x="18.8462" y="26.354" width="3.16923" height="3.16923" transform="rotate(180 18.8462 26.354)" fill="#F9D65F"/>
<rect x="18.8462" y="29.5229" width="3.16923" height="3.16923" transform="rotate(180 18.8462 29.5229)" fill="#F9D65F"/>
<rect x="18.8462" y="23.1846" width="3.16923" height="3.16923" transform="rotate(180 18.8462 23.1846)" fill="#F9D65F"/>
<rect x="15.6768" y="39.0308" width="3.16923" height="3.16923" transform="rotate(180 15.6768 39.0308)" fill="#F9D65F"/>
<rect x="15.6768" y="35.8613" width="3.16923" height="3.16923" transform="rotate(180 15.6768 35.8613)" fill="#F9D65F"/>
<rect x="15.6768" y="32.6924" width="3.16923" height="3.16923" transform="rotate(180 15.6768 32.6924)" fill="#F9D65F"/>
<rect x="15.6768" y="26.354" width="3.16923" height="3.16923" transform="rotate(180 15.6768 26.354)" fill="#F9D65F"/>
<rect x="15.6768" y="29.5229" width="3.16923" height="3.16923" transform="rotate(180 15.6768 29.5229)" fill="#F9D65F"/>
<rect x="15.6768" y="23.1846" width="3.16923" height="3.16923" transform="rotate(180 15.6768 23.1846)" fill="#F9D65F"/>
<rect x="12.5078" y="35.8613" width="3.16923" height="3.16923" transform="rotate(180 12.5078 35.8613)" fill="#F9D65F"/>
<rect x="12.5078" y="32.6924" width="3.16923" height="3.16923" transform="rotate(180 12.5078 32.6924)" fill="#F9D65F"/>
<rect x="12.5078" y="26.354" width="3.16923" height="3.16923" transform="rotate(180 12.5078 26.354)" fill="#F9D65F"/>
<rect x="12.5078" y="29.5229" width="3.16923" height="3.16923" transform="rotate(180 12.5078 29.5229)" fill="#F9D65F"/>
<rect x="12.5078" y="23.1846" width="3.16923" height="3.16923" transform="rotate(180 12.5078 23.1846)" fill="#F9D65F"/>
<rect x="37.8613" y="35.8613" width="3.16923" height="3.16923" transform="rotate(180 37.8613 35.8613)" fill="#F9D65F"/>
<rect x="37.8613" y="32.6924" width="3.16923" height="3.16923" transform="rotate(180 37.8613 32.6924)" fill="#F9D65F"/>
<rect x="37.8613" y="26.354" width="3.16923" height="3.16923" transform="rotate(180 37.8613 26.354)" fill="#F9D65F"/>
<rect x="37.8613" y="29.5229" width="3.16923" height="3.16923" transform="rotate(180 37.8613 29.5229)" fill="#F9D65F"/>
<rect x="37.8613" y="23.1846" width="3.16923" height="3.16923" transform="rotate(180 37.8613 23.1846)" fill="#F9D65F"/>
<rect x="9.33838" y="32.6924" width="3.16923" height="3.16923" transform="rotate(180 9.33838 32.6924)" fill="#F9D65F"/>
<rect x="9.33838" y="26.354" width="3.16923" height="3.16923" transform="rotate(180 9.33838 26.354)" fill="#F9D65F"/>
<rect x="9.33838" y="29.5229" width="3.16923" height="3.16923" transform="rotate(180 9.33838 29.5229)" fill="#F9D65F"/>
<rect x="9.33838" y="23.1846" width="3.16923" height="3.16923" transform="rotate(180 9.33838 23.1846)" fill="#F9D65F"/>
<rect x="6.16943" y="26.354" width="3.16923" height="3.16923" transform="rotate(180 6.16943 26.354)" fill="#F9D65F"/>
<rect x="44.2002" y="26.354" width="3.16923" height="3.16923" transform="rotate(180 44.2002 26.354)" fill="#F9D65F"/>
<rect x="6.16943" y="23.1846" width="3.16923" height="3.16923" transform="rotate(180 6.16943 23.1846)" fill="#F9D65F"/>
<rect x="44.2002" y="23.1846" width="3.16923" height="3.16923" transform="rotate(180 44.2002 23.1846)" fill="#F9D65F"/>
<rect x="31.5229" y="39.0308" width="3.16923" height="3.16923" transform="rotate(180 31.5229 39.0308)" fill="#F9D65F"/>
<rect x="31.5229" y="35.8613" width="3.16923" height="3.16923" transform="rotate(180 31.5229 35.8613)" fill="#F9D65F"/>
<rect x="31.5229" y="32.6924" width="3.16923" height="3.16923" transform="rotate(180 31.5229 32.6924)" fill="#F9D65F"/>
<rect x="31.5229" y="26.354" width="3.16923" height="3.16923" transform="rotate(180 31.5229 26.354)" fill="#F9D65F"/>
<rect x="31.5229" y="29.5229" width="3.16923" height="3.16923" transform="rotate(180 31.5229 29.5229)" fill="#F9D65F"/>
<rect x="31.5229" y="23.1846" width="3.16923" height="3.16923" transform="rotate(180 31.5229 23.1846)" fill="#F9D65F"/>
<rect x="34.6924" y="39.0308" width="3.16923" height="3.16923" transform="rotate(180 34.6924 39.0308)" fill="#F9D65F"/>
<rect x="34.6924" y="35.8613" width="3.16923" height="3.16923" transform="rotate(180 34.6924 35.8613)" fill="#F9D65F"/>
<rect x="34.6924" y="32.6924" width="3.16923" height="3.16923" transform="rotate(180 34.6924 32.6924)" fill="#F9D65F"/>
<rect x="34.6924" y="26.354" width="3.16923" height="3.16923" transform="rotate(180 34.6924 26.354)" fill="#F9D65F"/>
<rect x="34.6924" y="29.5229" width="3.16923" height="3.16923" transform="rotate(180 34.6924 29.5229)" fill="#F9D65F"/>
<rect x="34.6924" y="23.1846" width="3.16923" height="3.16923" transform="rotate(180 34.6924 23.1846)" fill="#F9D65F"/>
<rect x="41.0308" y="32.6924" width="3.16923" height="3.16923" transform="rotate(180 41.0308 32.6924)" fill="#F9D65F"/>
<rect x="41.0308" y="26.354" width="3.16923" height="3.16923" transform="rotate(180 41.0308 26.354)" fill="#F9D65F"/>
<rect x="41.0308" y="29.5229" width="3.16923" height="3.16923" transform="rotate(180 41.0308 29.5229)" fill="#F9D65F"/>
<rect x="41.0308" y="23.1846" width="3.16923" height="3.16923" transform="rotate(180 41.0308 23.1846)" fill="#F9D65F"/>
<rect x="6.16943" y="16.8462" width="3.16923" height="3.16923" fill="white"/>
<rect x="3" y="16.8462" width="3.16923" height="3.16923" fill="#F9D65F"/>
<rect width="3.16923" height="3.16923" transform="matrix(-1 0 0 1 44.2002 16.8462)" fill="#F9D65F"/>
<rect x="9.33838" y="16.8462" width="3.16923" height="3.16923" fill="#F9D65F"/>
<rect width="3.16923" height="3.16923" transform="matrix(-1 0 0 1 41.0308 16.8462)" fill="#F9D65F"/>
<rect x="12.5078" y="16.8462" width="3.16923" height="3.16923" fill="#F9D65F"/>
<rect x="12.5078" y="20.0156" width="3.16923" height="3.16923" fill="#F9D65F"/>
<rect x="15.6768" y="23.1846" width="3.16923" height="3.16923" fill="#F9D65F"/>
<rect width="3.16923" height="3.16923" transform="matrix(-1 0 0 1 37.8613 16.8462)" fill="#F9D65F"/>
<rect width="3.16923" height="3.16923" transform="matrix(-1 0 0 1 41.0308 20.0156)" fill="#F9D65F"/>
<rect width="3.16923" height="3.16923" transform="matrix(-1 0 0 1 41.0308 23.1846)" fill="#F9D65F"/>
<rect x="18.8462" y="23.1846" width="3.16923" height="3.16923" fill="#F9D65F"/>
<rect width="3.16923" height="3.16923" transform="matrix(-1 0 0 1 31.5229 23.1846)" fill="#F9D65F"/>
<rect x="18.8462" y="20.0156" width="3.16923" height="3.16923" fill="#F9D65F"/>
<rect width="3.16923" height="3.16923" transform="matrix(-1 0 0 1 31.5229 20.0156)" fill="#F9D65F"/>
<rect width="3.16923" height="3.16923" transform="matrix(-1 0 0 1 34.6924 20.0156)" fill="#F9D65F"/>
<rect width="3.16923" height="3.16923" transform="matrix(-1 0 0 1 37.8613 20.0156)" fill="#F9D65F"/>
<rect width="3.16923" height="3.16923" transform="matrix(-1 0 0 1 18.8462 20.0156)" fill="#F9D65F"/>
<rect width="3.16923" height="3.16923" transform="matrix(-1 0 0 1 34.6924 23.1846)" fill="#F9D65F"/>
<rect width="3.16923" height="3.16923" transform="matrix(-1 0 0 1 15.6768 23.1846)" fill="#F9D65F"/>
<rect width="3.16923" height="3.16923" transform="matrix(-1 0 0 1 37.8613 23.1846)" fill="#F9D65F"/>
<rect x="18.8462" y="16.8462" width="3.16923" height="3.16923" fill="#F9D65F"/>
<rect width="3.16923" height="3.16923" transform="matrix(-1 0 0 1 31.5229 16.8462)" fill="#F9D65F"/>
<rect x="22.0156" y="16.8462" width="3.16923" height="3.16923" fill="#F9D65F"/>
<rect width="3.16923" height="3.16923" transform="matrix(-1 0 0 1 28.354 16.8462)" fill="#F9D65F"/>
<rect x="15.6768" y="16.8462" width="3.16923" height="3.16923" fill="#F9D65F"/>
<rect width="3.16923" height="3.16923" transform="matrix(-1 0 0 1 34.6924 16.8462)" fill="#F9D65F"/>
<path d="M24.9496 13.668H8.44971V16.4337H24.9496V13.668Z" fill="#212529"/>
<path d="M44.1996 13.668H27.6997V16.4337H44.1996V13.668Z" fill="#212529"/>
<path d="M16.6997 16.4336H8.44971V19.1993H16.6997V16.4336Z" fill="#212529"/>
<path d="M19.4502 16.4336H16.7002V19.1993H19.4502V16.4336Z" fill="#212529"/>
<path d="M24.9502 16.4336H19.4502V19.1993H24.9502V16.4336Z" fill="#212529"/>
<path d="M35.9497 16.4336H27.6997V19.1993H35.9497V16.4336Z" fill="#212529"/>
<path d="M38.7002 16.4336H35.9502V19.1993H38.7002V16.4336Z" fill="#212529"/>
<path d="M38.7002 21.9648H35.9502V24.7305H38.7002V21.9648Z" fill="#212529"/>
<path d="M44.2002 16.4336H38.7002V19.1993H44.2002V16.4336Z" fill="#212529"/>
<path d="M44.1999 19.1997H0.200195V21.9654H44.1999V19.1997Z" fill="#212529"/>
<path d="M3.00584 21.9648H0.200195V24.7305H3.00584V21.9648Z" fill="#212529"/>
<path d="M11.1997 21.9648H8.44971V24.7305H11.1997V21.9648Z" fill="#212529"/>
<path d="M13.9497 21.9648H11.1997V24.7305H13.9497V21.9648Z" fill="#212529"/>
<path d="M19.4502 21.9648H13.9502V24.7305H19.4502V21.9648Z" fill="#212529"/>
<path d="M24.9497 21.9648H22.1997V24.7305H24.9497V21.9648Z" fill="#212529"/>
<path d="M30.4497 21.9648H27.6997V24.7305H30.4497V21.9648Z" fill="#212529"/>
<path d="M38.7001 21.9648H30.4502V24.7305H38.7001V21.9648Z" fill="#212529"/>
<path d="M44.2002 21.9648H41.4502V24.7305H44.2002V21.9648Z" fill="#212529"/>
<path d="M3.00584 24.7305H0.200195V27.4962H3.00584V24.7305Z" fill="#212529"/>
<path d="M24.9496 24.7305H8.44971V27.4962H24.9496V24.7305Z" fill="#212529"/>
<path d="M44.1996 24.7305H27.6997V27.4962H44.1996V24.7305Z" fill="#212529"/>
<path d="M24.9496 27.4961H8.44971V30.2618H24.9496V27.4961Z" fill="#212529"/>
<path d="M44.1996 27.4961H27.6997V30.2618H44.1996V27.4961Z" fill="#212529"/>
<path d="M38.7007 24.7305H33.2007V27.4962H38.7007V24.7305Z" fill="white"/>
<path d="M41.4502 24.7305H38.7002V27.4962H41.4502V24.7305Z" fill="white"/>
<path d="M41.4502 21.9648H38.7002V24.7305H41.4502V21.9648Z" fill="white"/>
<path d="M22.2002 24.7305H19.4502V27.4962H22.2002V24.7305Z" fill="white"/>
<path d="M22.2002 21.9648H19.4502V24.7305H22.2002V21.9648Z" fill="white"/>
<path d="M19.4502 24.7305H16.7002V27.4962H19.4502V24.7305Z" fill="white"/>
<path d="M16.7002 24.7305H13.9502V27.4962H16.7002V24.7305Z" fill="white"/>
</g>
<defs>
<clipPath id="clip0_337_108996">
<rect width="44" height="44" fill="white"/>
</clipPath>
</defs>
</svg>
