<svg viewBox="0 0 21 20" fill="none" xmlns="http://www.w3.org/2000/svg">
  <g clip-path="url(#clip0_110_4397)">
    <path d="M19.5 4.02798H1.5V1H0.5V19H1.5V5.02279H19.5V19H20.5V1H19.5V4.02798Z" fill="black"/>
    <path d="M19.5 19H1.5V20H19.5V19Z" fill="#212529"/>
    <path d="M15.7375 14.2875H14.7875V15.2375H15.7375V14.2875Z" fill="black"/>
    <path d="M14.7875 11.4312H15.7375V12.3812H14.7875V13.3375H16.6875V10.475H14.7875V11.4312Z" fill="black"/>
    <path d="M15.7375 8.57495H14.7875V9.52495H15.7375V8.57495Z" fill="black"/>
    <path d="M14.7875 15.2375H13.8312V16.1938H14.7875V15.2375Z" fill="black"/>
    <path d="M14.7875 13.3375H13.8312V14.2875H14.7875V13.3375Z" fill="black"/>
    <path d="M14.7875 9.52502H13.8312V10.475H14.7875V9.52502Z" fill="black"/>
    <path d="M14.7875 7.61877H13.8312V8.57502H14.7875V7.61877Z" fill="black"/>
    <path d="M13.8312 16.1937H12.8812V17.1437H13.8312V16.1937Z" fill="black"/>
    <path d="M13.8312 6.6687H12.8812V7.6187H13.8312V6.6687Z" fill="black"/>
    <path d="M12.8812 15.2375H11.925V16.1938H12.8812V15.2375Z" fill="black"/>
    <path d="M12.8812 10.475H11.925V13.3375H12.8812V10.475Z" fill="black"/>
    <path d="M12.8812 7.61877H11.925V8.57502H12.8812V7.61877Z" fill="black"/>
    <path d="M10.975 17.1437H10.025V16.1937H9.06873V18.0937H11.925V16.1937H10.975V17.1437Z" fill="black"/>
    <path d="M11.925 13.3375H9.06873V14.2875H11.925V13.3375Z" fill="black"/>
    <path d="M11.925 9.52502H9.06873V10.475H11.925V9.52502Z" fill="black"/>
    <path d="M10.025 6.66875H10.975V7.61875H11.925V5.71875H9.06873V7.61875H10.025V6.66875Z" fill="black"/>
    <path d="M9.06877 15.2375H8.11877V16.1938H9.06877V15.2375Z" fill="black"/>
    <path d="M9.06877 10.475H8.11877V13.3375H9.06877V10.475Z" fill="black"/>
    <path d="M9.06877 7.61877H8.11877V8.57502H9.06877V7.61877Z" fill="black"/>
    <path d="M8.11876 16.1937H7.16876V17.1437H8.11876V16.1937Z" fill="black"/>
    <path d="M8.11876 6.6687H7.16876V7.6187H8.11876V6.6687Z" fill="black"/>
    <path d="M7.16877 15.2375H6.21252V16.1938H7.16877V15.2375Z" fill="black"/>
    <path d="M7.16877 13.3375H6.21252V14.2875H7.16877V13.3375Z" fill="black"/>
    <path d="M7.16877 9.52502H6.21252V10.475H7.16877V9.52502Z" fill="black"/>
    <path d="M7.16877 7.61877H6.21252V8.57502H7.16877V7.61877Z" fill="black"/>
    <path d="M7.5 2H6.5V3H7.5V2Z" fill="black"/>
    <path d="M6.21251 14.2875H5.26251V15.2375H6.21251V14.2875Z" fill="black"/>
    <path d="M5.26252 12.3812V11.4312H6.21252V10.475H4.30627V13.3375H6.21252V12.3812H5.26252Z" fill="black"/>
    <path d="M6.21251 8.57495H5.26251V9.52495H6.21251V8.57495Z" fill="black"/>
    <path d="M5.5 2H4.5V3H5.5V2Z" fill="black"/>
    <path d="M3.5 2H2.5V3H3.5V2Z" fill="black"/>
    <path d="M19.5 0H1.5V1H19.5V0Z" fill="black"/>
  </g>
  <defs>
    <clipPath id="clip0_110_4397">
      <rect width="20" height="20" fill="white" transform="translate(0.5)"/>
    </clipPath>
  </defs>
</svg>
