<svg viewBox="0 0 574 430" fill="none" xmlns="http://www.w3.org/2000/svg">
  <path fill-rule="evenodd" clip-rule="evenodd" d="M451.049 117.966L451.049 113.914H438.953V117.946H438.983L438.953 117.976L438.953 117.946L430.889 117.946V126.01L426.857 126.01V138.106H430.889L430.889 146.17H438.953V150.202H451.049V146.17H459.113V138.106H463.145V126.01H459.113V117.946L451.049 117.966Z" fill="#6C6D52" fill-opacity="0.15"/>
  <path fill-rule="evenodd" clip-rule="evenodd" d="M449.525 121.935L449.525 119H440.763V121.921H440.785L440.763 121.943L440.763 121.921L434.921 121.921V127.763L432 127.763V136.525H434.921L434.921 142.367H440.763V145.288H449.525V142.367H455.367V136.525H458.288V127.763H455.367V121.921L449.525 121.935Z" fill="#C3C698" fill-opacity="0.5"/>
  <path fill-rule="evenodd" clip-rule="evenodd" d="M559.049 189.966L559.049 185.914H546.953V189.946H546.983L546.953 189.976L546.953 189.946L538.889 189.946V198.01L534.857 198.01V210.106H538.889L538.889 218.17H546.953V222.202H559.049V218.17H567.113V210.106H571.145V198.01H567.113V189.946L559.049 189.966Z" fill="#6C6D52" fill-opacity="0.15"/>
  <path fill-rule="evenodd" clip-rule="evenodd" d="M557.525 193.935L557.525 191H548.763V193.921H548.785L548.763 193.943L548.763 193.921L542.921 193.921V199.763L540 199.763V208.525H542.921L542.921 214.367H548.763V217.288H557.525V214.367H563.367V208.525H566.288V199.763H563.367V193.921L557.525 193.935Z" fill="#C3C698" fill-opacity="0.5"/>
  <path fill-rule="evenodd" clip-rule="evenodd" d="M345.049 197.966L345.049 193.914H332.953V197.946H332.983L332.953 197.976L332.953 197.946L324.889 197.946V206.01L320.857 206.01V218.106H324.889L324.889 226.17H332.953V230.202H345.049V226.17H353.113V218.106H357.145V206.01H353.113V197.946L345.049 197.966Z" fill="#6C6D52" fill-opacity="0.15"/>
  <path fill-rule="evenodd" clip-rule="evenodd" d="M343.525 201.935L343.525 199H334.763V201.921H334.785L334.763 201.943L334.763 201.921L328.921 201.921V207.763L326 207.763V216.525H328.921L328.921 222.367H334.763V225.288H343.525V222.367H349.367V216.525H352.288V207.763H349.367V201.921L343.525 201.935Z" fill="#C3C698" fill-opacity="0.5"/>
  <path fill-rule="evenodd" clip-rule="evenodd" d="M345.049 301.966L345.049 297.914H332.953V301.946H332.983L332.953 301.976L332.953 301.946L324.889 301.946V310.01L320.857 310.01V322.106H324.889L324.889 330.17H332.953V334.202H345.049V330.17H353.113V322.106H357.145V310.01H353.113V301.946L345.049 301.966Z" fill="#6C6D52" fill-opacity="0.15"/>
  <path fill-rule="evenodd" clip-rule="evenodd" d="M343.525 305.935L343.525 303H334.763V305.921H334.785L334.763 305.943L334.763 305.921L328.921 305.921V311.763L326 311.763V320.525H328.921L328.921 326.367H334.763V329.288H343.525V326.367H349.367V320.525H352.288V311.763H349.367V305.921L343.525 305.935Z" fill="#C3C698" fill-opacity="0.5"/>
  <path fill-rule="evenodd" clip-rule="evenodd" d="M239.049 290.966L239.049 286.914H226.953V290.946H226.983L226.953 290.976L226.953 290.946L218.889 290.946V299.01L214.857 299.01V311.106H218.889L218.889 319.17H226.953V323.202H239.049V319.17H247.113V311.106H251.145V299.01H247.113V290.946L239.049 290.966Z" fill="#6C6D52" fill-opacity="0.15"/>
  <path fill-rule="evenodd" clip-rule="evenodd" d="M237.525 294.935L237.525 292H228.763V294.921H228.785L228.763 294.943L228.763 294.921L222.921 294.921V300.763L220 300.763V309.525H222.921L222.921 315.367H228.763V318.288H237.525V315.367H243.367V309.525H246.288V300.763H243.367V294.921L237.525 294.935Z" fill="#C3C698" fill-opacity="0.5"/>
  <path fill-rule="evenodd" clip-rule="evenodd" d="M27.049 243.966L27.049 239.914H14.953V243.946H14.9833L14.953 243.976L14.953 243.946L6.88903 243.946V252.01L2.85693 252.01V264.106H6.88893L6.88903 272.17H14.953V276.202H27.049V272.17H35.113V264.106H39.1449V252.01H35.113V243.946L27.049 243.966Z" fill="#6C6D52" fill-opacity="0.15"/>
  <path fill-rule="evenodd" clip-rule="evenodd" d="M25.5254 247.935L25.5253 245H16.7627V247.921H16.7847L16.7627 247.943L16.7627 247.921L10.921 247.921V253.763L8 253.763V262.525H10.9209L10.921 268.367H16.7627V271.288H25.5253V268.367H31.3671V262.525H34.288V253.763H31.3671V247.921L25.5254 247.935Z" fill="#C3C698" fill-opacity="0.5"/>
  <path fill-rule="evenodd" clip-rule="evenodd" d="M133.049 104.966L133.049 100.914H120.953V104.946H120.983L120.953 104.976L120.953 104.946L112.889 104.946V113.01L108.857 113.01V125.106H112.889L112.889 133.17H120.953V137.202H133.049V133.17H141.113V125.106H145.145V113.01H141.113V104.946L133.049 104.966Z" fill="#6C6D52" fill-opacity="0.15"/>
  <path fill-rule="evenodd" clip-rule="evenodd" d="M131.525 108.935L131.525 106H122.763V108.921H122.785L122.763 108.943L122.763 108.921L116.921 108.921V114.763L114 114.763V123.525H116.921L116.921 129.367H122.763V132.288H131.525V129.367H137.367V123.525H140.288V114.763H137.367V108.921L131.525 108.935Z" fill="#C3C698" fill-opacity="0.5"/>
  <path fill-rule="evenodd" clip-rule="evenodd" d="M27.049 20.9662L27.049 16.9142H14.953V20.9462H14.9833L14.953 20.9764L14.953 20.9462L6.88903 20.9463V29.0103L2.85693 29.0102V41.1062H6.88893L6.88903 49.1702H14.953V53.2021H27.049V49.1702H35.113V41.1062H39.1449V29.0102H35.113V20.9463L27.049 20.9662Z" fill="#6C6D52" fill-opacity="0.15"/>
  <path fill-rule="evenodd" clip-rule="evenodd" d="M25.5254 24.9354L25.5253 22H16.7627V24.9209H16.7847L16.7627 24.9428L16.7627 24.9209L10.921 24.921V30.7627L8 30.7627V39.5253H10.9209L10.921 45.3671H16.7627V48.288H25.5253V45.3671H31.3671V39.5253H34.288V30.7627H31.3671V24.921L25.5254 24.9354Z" fill="#C3C698" fill-opacity="0.5"/>
  <rect x="20" y="279" width="2" height="123" fill="url(#paint0_linear_668_132772)" fill-opacity="0.15"/>
  <rect x="126" width="2" height="98" fill="url(#paint1_linear_668_132772)" fill-opacity="0.15"/>
  <rect x="126" y="140" width="2" height="197" fill="url(#paint2_linear_668_132772)" fill-opacity="0.15"/>
  <rect x="20" y="56" width="2" height="181" fill="#6C6D52" fill-opacity="0.15"/>
  <rect x="232" y="326" width="2" height="104" fill="url(#paint3_linear_668_132772)" fill-opacity="0.15"/>
  <rect x="338" y="337" width="2" height="67" fill="url(#paint4_linear_668_132772)" fill-opacity="0.15"/>
  <rect x="338" y="233" width="2" height="62" fill="#6C6D52" fill-opacity="0.15"/>
  <rect x="552" y="225" width="2" height="178" fill="url(#paint5_linear_668_132772)" fill-opacity="0.15"/>
  <rect x="444" y="153" width="2" height="250" fill="url(#paint6_linear_668_132772)" fill-opacity="0.15"/>
  <rect x="551" width="2" height="183" fill="url(#paint7_linear_668_132772)" fill-opacity="0.15"/>
  <rect x="444" width="2" height="111" fill="url(#paint8_linear_668_132772)" fill-opacity="0.15"/>
  <rect x="338" width="2" height="191" fill="url(#paint9_linear_668_132772)" fill-opacity="0.15"/>
  <rect x="232" width="2" height="284" fill="url(#paint10_linear_668_132772)" fill-opacity="0.15"/>
  <rect x="550" y="283" width="2" height="2" fill="#6C6D52" fill-opacity="0.15"/>
  <rect x="550" y="285" width="2" height="2" fill="#6C6D52" fill-opacity="0.15"/>
  <rect x="548" y="285" width="2" height="2" fill="#6C6D52" fill-opacity="0.15"/>
  <rect x="548" y="287" width="2" height="2" fill="#6C6D52" fill-opacity="0.15"/>
  <rect x="546" y="287" width="2" height="2" fill="#6C6D52" fill-opacity="0.15"/>
  <rect x="546" y="289" width="2" height="2" fill="#6C6D52" fill-opacity="0.15"/>
  <rect x="544" y="289" width="2" height="2" fill="#6C6D52" fill-opacity="0.15"/>
  <rect x="544" y="291" width="2" height="2" fill="#6C6D52" fill-opacity="0.15"/>
  <rect x="542" y="291" width="2" height="2" fill="#6C6D52" fill-opacity="0.15"/>
  <rect x="542" y="293" width="2" height="2" fill="#6C6D52" fill-opacity="0.15"/>
  <rect x="540" y="293" width="2" height="2" fill="#6C6D52" fill-opacity="0.15"/>
  <rect x="540" y="295" width="2" height="2" fill="#6C6D52" fill-opacity="0.15"/>
  <rect x="536" y="299" width="2" height="2" fill="#6C6D52" fill-opacity="0.15"/>
  <rect x="532" y="303" width="2" height="2" fill="#6C6D52" fill-opacity="0.15"/>
  <rect x="528" y="307" width="2" height="2" fill="#6C6D52" fill-opacity="0.15"/>
  <rect x="538" y="295" width="2" height="2" fill="#6C6D52" fill-opacity="0.15"/>
  <rect x="534" y="299" width="2" height="2" fill="#6C6D52" fill-opacity="0.15"/>
  <rect x="530" y="303" width="2" height="2" fill="#6C6D52" fill-opacity="0.15"/>
  <rect x="526" y="307" width="2" height="2" fill="#6C6D52" fill-opacity="0.15"/>
  <rect x="538" y="297" width="2" height="2" fill="#6C6D52" fill-opacity="0.15"/>
  <rect x="534" y="301" width="2" height="2" fill="#6C6D52" fill-opacity="0.15"/>
  <rect x="530" y="305" width="2" height="2" fill="#6C6D52" fill-opacity="0.15"/>
  <rect x="526" y="309" width="2" height="2" fill="#6C6D52" fill-opacity="0.15"/>
  <rect x="536" y="297" width="2" height="2" fill="#6C6D52" fill-opacity="0.15"/>
  <rect x="532" y="301" width="2" height="2" fill="#6C6D52" fill-opacity="0.15"/>
  <rect x="528" y="305" width="2" height="2" fill="#6C6D52" fill-opacity="0.15"/>
  <rect x="472" y="309" width="2" height="2" fill="#6C6D52" fill-opacity="0.15"/>
  <rect x="472" y="311" width="2" height="2" fill="#6C6D52" fill-opacity="0.15"/>
  <rect x="470" y="311" width="2" height="2" fill="#6C6D52" fill-opacity="0.15"/>
  <rect x="470" y="313" width="2" height="2" fill="#6C6D52" fill-opacity="0.15"/>
  <rect x="468" y="313" width="2" height="2" fill="#6C6D52" fill-opacity="0.15"/>
  <rect x="468" y="315" width="2" height="2" fill="#6C6D52" fill-opacity="0.15"/>
  <rect x="466" y="315" width="2" height="2" fill="#6C6D52" fill-opacity="0.15"/>
  <rect x="466" y="317" width="2" height="2" fill="#6C6D52" fill-opacity="0.15"/>
  <rect x="464" y="317" width="2" height="2" fill="#6C6D52" fill-opacity="0.15"/>
  <rect x="464" y="319" width="2" height="2" fill="#6C6D52" fill-opacity="0.15"/>
  <rect x="462" y="319" width="2" height="2" fill="#6C6D52" fill-opacity="0.15"/>
  <rect x="462" y="321" width="2" height="2" fill="#6C6D52" fill-opacity="0.15"/>
  <rect x="458" y="325" width="2" height="2" fill="#6C6D52" fill-opacity="0.15"/>
  <rect x="454" y="329" width="2" height="2" fill="#6C6D52" fill-opacity="0.15"/>
  <rect x="450" y="333" width="2" height="2" fill="#6C6D52" fill-opacity="0.15"/>
  <rect x="460" y="321" width="2" height="2" fill="#6C6D52" fill-opacity="0.15"/>
  <rect x="456" y="325" width="2" height="2" fill="#6C6D52" fill-opacity="0.15"/>
  <rect x="452" y="329" width="2" height="2" fill="#6C6D52" fill-opacity="0.15"/>
  <rect x="448" y="333" width="2" height="2" fill="#6C6D52" fill-opacity="0.15"/>
  <rect x="446" y="335" width="2" height="2" fill="#6C6D52" fill-opacity="0.15"/>
  <rect x="460" y="323" width="2" height="2" fill="#6C6D52" fill-opacity="0.15"/>
  <rect x="456" y="327" width="2" height="2" fill="#6C6D52" fill-opacity="0.15"/>
  <rect x="452" y="331" width="2" height="2" fill="#6C6D52" fill-opacity="0.15"/>
  <rect x="448" y="335" width="2" height="2" fill="#6C6D52" fill-opacity="0.15"/>
  <rect x="446" y="337" width="2" height="2" fill="#6C6D52" fill-opacity="0.15"/>
  <rect x="458" y="323" width="2" height="2" fill="#6C6D52" fill-opacity="0.15"/>
  <rect x="454" y="327" width="2" height="2" fill="#6C6D52" fill-opacity="0.15"/>
  <rect x="450" y="331" width="2" height="2" fill="#6C6D52" fill-opacity="0.15"/>
  <rect x="474" y="309" width="2" height="2" fill="#6C6D52" fill-opacity="0.15"/>
  <rect x="522" y="309" width="2" height="2" fill="#6C6D52" fill-opacity="0.15"/>
  <rect x="518" y="309" width="2" height="2" fill="#6C6D52" fill-opacity="0.15"/>
  <rect x="514" y="309" width="2" height="2" fill="#6C6D52" fill-opacity="0.15"/>
  <rect x="510" y="309" width="2" height="2" fill="#6C6D52" fill-opacity="0.15"/>
  <rect x="506" y="309" width="2" height="2" fill="#6C6D52" fill-opacity="0.15"/>
  <rect x="502" y="309" width="2" height="2" fill="#6C6D52" fill-opacity="0.15"/>
  <rect x="498" y="309" width="2" height="2" fill="#6C6D52" fill-opacity="0.15"/>
  <rect x="494" y="309" width="2" height="2" fill="#6C6D52" fill-opacity="0.15"/>
  <rect x="490" y="309" width="2" height="2" fill="#6C6D52" fill-opacity="0.15"/>
  <rect x="486" y="309" width="2" height="2" fill="#6C6D52" fill-opacity="0.15"/>
  <rect x="482" y="309" width="2" height="2" fill="#6C6D52" fill-opacity="0.15"/>
  <rect x="478" y="309" width="2" height="2" fill="#6C6D52" fill-opacity="0.15"/>
  <rect x="524" y="309" width="2" height="2" fill="#6C6D52" fill-opacity="0.15"/>
  <rect x="520" y="309" width="2" height="2" fill="#6C6D52" fill-opacity="0.15"/>
  <rect x="516" y="309" width="2" height="2" fill="#6C6D52" fill-opacity="0.15"/>
  <rect x="512" y="309" width="2" height="2" fill="#6C6D52" fill-opacity="0.15"/>
  <rect x="508" y="309" width="2" height="2" fill="#6C6D52" fill-opacity="0.15"/>
  <rect x="504" y="309" width="2" height="2" fill="#6C6D52" fill-opacity="0.15"/>
  <rect x="500" y="309" width="2" height="2" fill="#6C6D52" fill-opacity="0.15"/>
  <rect x="496" y="309" width="2" height="2" fill="#6C6D52" fill-opacity="0.15"/>
  <rect x="492" y="309" width="2" height="2" fill="#6C6D52" fill-opacity="0.15"/>
  <rect x="488" y="309" width="2" height="2" fill="#6C6D52" fill-opacity="0.15"/>
  <rect x="484" y="309" width="2" height="2" fill="#6C6D52" fill-opacity="0.15"/>
  <rect x="480" y="309" width="2" height="2" fill="#6C6D52" fill-opacity="0.15"/>
  <rect x="476" y="309" width="2" height="2" fill="#6C6D52" fill-opacity="0.15"/>
  <rect x="442" y="206" width="2" height="2" fill="#6C6D52" fill-opacity="0.15"/>
  <rect x="442" y="208" width="2" height="2" fill="#6C6D52" fill-opacity="0.15"/>
  <rect x="440" y="208" width="2" height="2" fill="#6C6D52" fill-opacity="0.15"/>
  <rect x="440" y="210" width="2" height="2" fill="#6C6D52" fill-opacity="0.15"/>
  <rect x="438" y="210" width="2" height="2" fill="#6C6D52" fill-opacity="0.15"/>
  <rect x="438" y="212" width="2" height="2" fill="#6C6D52" fill-opacity="0.15"/>
  <rect x="436" y="212" width="2" height="2" fill="#6C6D52" fill-opacity="0.15"/>
  <rect x="436" y="214" width="2" height="2" fill="#6C6D52" fill-opacity="0.15"/>
  <rect x="434" y="214" width="2" height="2" fill="#6C6D52" fill-opacity="0.15"/>
  <rect x="434" y="216" width="2" height="2" fill="#6C6D52" fill-opacity="0.15"/>
  <rect x="432" y="216" width="2" height="2" fill="#6C6D52" fill-opacity="0.15"/>
  <rect x="432" y="218" width="2" height="2" fill="#6C6D52" fill-opacity="0.15"/>
  <rect x="428" y="222" width="2" height="2" fill="#6C6D52" fill-opacity="0.15"/>
  <rect x="424" y="226" width="2" height="2" fill="#6C6D52" fill-opacity="0.15"/>
  <rect x="420" y="230" width="2" height="2" fill="#6C6D52" fill-opacity="0.15"/>
  <rect x="430" y="218" width="2" height="2" fill="#6C6D52" fill-opacity="0.15"/>
  <rect x="426" y="222" width="2" height="2" fill="#6C6D52" fill-opacity="0.15"/>
  <rect x="422" y="226" width="2" height="2" fill="#6C6D52" fill-opacity="0.15"/>
  <rect x="418" y="230" width="2" height="2" fill="#6C6D52" fill-opacity="0.15"/>
  <rect x="430" y="220" width="2" height="2" fill="#6C6D52" fill-opacity="0.15"/>
  <rect x="426" y="224" width="2" height="2" fill="#6C6D52" fill-opacity="0.15"/>
  <rect x="422" y="228" width="2" height="2" fill="#6C6D52" fill-opacity="0.15"/>
  <rect x="418" y="232" width="2" height="2" fill="#6C6D52" fill-opacity="0.15"/>
  <rect x="428" y="220" width="2" height="2" fill="#6C6D52" fill-opacity="0.15"/>
  <rect x="424" y="224" width="2" height="2" fill="#6C6D52" fill-opacity="0.15"/>
  <rect x="420" y="228" width="2" height="2" fill="#6C6D52" fill-opacity="0.15"/>
  <rect x="364" y="232" width="2" height="2" fill="#6C6D52" fill-opacity="0.15"/>
  <rect x="364" y="234" width="2" height="2" fill="#6C6D52" fill-opacity="0.15"/>
  <rect x="362" y="234" width="2" height="2" fill="#6C6D52" fill-opacity="0.15"/>
  <rect x="362" y="236" width="2" height="2" fill="#6C6D52" fill-opacity="0.15"/>
  <rect x="360" y="236" width="2" height="2" fill="#6C6D52" fill-opacity="0.15"/>
  <rect x="360" y="238" width="2" height="2" fill="#6C6D52" fill-opacity="0.15"/>
  <rect x="358" y="238" width="2" height="2" fill="#6C6D52" fill-opacity="0.15"/>
  <rect x="358" y="240" width="2" height="2" fill="#6C6D52" fill-opacity="0.15"/>
  <rect x="356" y="240" width="2" height="2" fill="#6C6D52" fill-opacity="0.15"/>
  <rect x="356" y="242" width="2" height="2" fill="#6C6D52" fill-opacity="0.15"/>
  <rect x="354" y="242" width="2" height="2" fill="#6C6D52" fill-opacity="0.15"/>
  <rect x="354" y="244" width="2" height="2" fill="#6C6D52" fill-opacity="0.15"/>
  <rect x="350" y="248" width="2" height="2" fill="#6C6D52" fill-opacity="0.15"/>
  <rect x="346" y="252" width="2" height="2" fill="#6C6D52" fill-opacity="0.15"/>
  <rect x="342" y="256" width="2" height="2" fill="#6C6D52" fill-opacity="0.15"/>
  <rect x="352" y="244" width="2" height="2" fill="#6C6D52" fill-opacity="0.15"/>
  <rect x="348" y="248" width="2" height="2" fill="#6C6D52" fill-opacity="0.15"/>
  <rect x="344" y="252" width="2" height="2" fill="#6C6D52" fill-opacity="0.15"/>
  <rect x="340" y="256" width="2" height="2" fill="#6C6D52" fill-opacity="0.15"/>
  <rect x="352" y="246" width="2" height="2" fill="#6C6D52" fill-opacity="0.15"/>
  <rect x="348" y="250" width="2" height="2" fill="#6C6D52" fill-opacity="0.15"/>
  <rect x="344" y="254" width="2" height="2" fill="#6C6D52" fill-opacity="0.15"/>
  <rect x="340" y="258" width="2" height="2" fill="#6C6D52" fill-opacity="0.15"/>
  <rect x="350" y="246" width="2" height="2" fill="#6C6D52" fill-opacity="0.15"/>
  <rect x="346" y="250" width="2" height="2" fill="#6C6D52" fill-opacity="0.15"/>
  <rect x="342" y="254" width="2" height="2" fill="#6C6D52" fill-opacity="0.15"/>
  <rect x="366" y="232" width="2" height="2" fill="#6C6D52" fill-opacity="0.15"/>
  <rect x="414" y="232" width="2" height="2" fill="#6C6D52" fill-opacity="0.15"/>
  <rect x="410" y="232" width="2" height="2" fill="#6C6D52" fill-opacity="0.15"/>
  <rect x="406" y="232" width="2" height="2" fill="#6C6D52" fill-opacity="0.15"/>
  <rect x="402" y="232" width="2" height="2" fill="#6C6D52" fill-opacity="0.15"/>
  <rect x="398" y="232" width="2" height="2" fill="#6C6D52" fill-opacity="0.15"/>
  <rect x="394" y="232" width="2" height="2" fill="#6C6D52" fill-opacity="0.15"/>
  <rect x="390" y="232" width="2" height="2" fill="#6C6D52" fill-opacity="0.15"/>
  <rect x="386" y="232" width="2" height="2" fill="#6C6D52" fill-opacity="0.15"/>
  <rect x="382" y="232" width="2" height="2" fill="#6C6D52" fill-opacity="0.15"/>
  <rect x="378" y="232" width="2" height="2" fill="#6C6D52" fill-opacity="0.15"/>
  <rect x="374" y="232" width="2" height="2" fill="#6C6D52" fill-opacity="0.15"/>
  <rect x="370" y="232" width="2" height="2" fill="#6C6D52" fill-opacity="0.15"/>
  <rect x="416" y="232" width="2" height="2" fill="#6C6D52" fill-opacity="0.15"/>
  <rect x="412" y="232" width="2" height="2" fill="#6C6D52" fill-opacity="0.15"/>
  <rect x="408" y="232" width="2" height="2" fill="#6C6D52" fill-opacity="0.15"/>
  <rect x="404" y="232" width="2" height="2" fill="#6C6D52" fill-opacity="0.15"/>
  <rect x="400" y="232" width="2" height="2" fill="#6C6D52" fill-opacity="0.15"/>
  <rect x="396" y="232" width="2" height="2" fill="#6C6D52" fill-opacity="0.15"/>
  <rect x="392" y="232" width="2" height="2" fill="#6C6D52" fill-opacity="0.15"/>
  <rect x="388" y="232" width="2" height="2" fill="#6C6D52" fill-opacity="0.15"/>
  <rect x="384" y="232" width="2" height="2" fill="#6C6D52" fill-opacity="0.15"/>
  <rect x="380" y="232" width="2" height="2" fill="#6C6D52" fill-opacity="0.15"/>
  <rect x="376" y="232" width="2" height="2" fill="#6C6D52" fill-opacity="0.15"/>
  <rect x="372" y="232" width="2" height="2" fill="#6C6D52" fill-opacity="0.15"/>
  <rect x="368" y="232" width="2" height="2" fill="#6C6D52" fill-opacity="0.15"/>
  <rect width="2" height="2" transform="matrix(-1 0 0 1 130 226)" fill="#6C6D52" fill-opacity="0.15"/>
  <rect width="2" height="2" transform="matrix(-1 0 0 1 130 228)" fill="#6C6D52" fill-opacity="0.15"/>
  <rect width="2" height="2" transform="matrix(-1 0 0 1 132 228)" fill="#6C6D52" fill-opacity="0.15"/>
  <rect width="2" height="2" transform="matrix(-1 0 0 1 132 230)" fill="#6C6D52" fill-opacity="0.15"/>
  <rect width="2" height="2" transform="matrix(-1 0 0 1 134 230)" fill="#6C6D52" fill-opacity="0.15"/>
  <rect width="2" height="2" transform="matrix(-1 0 0 1 134 232)" fill="#6C6D52" fill-opacity="0.15"/>
  <rect width="2" height="2" transform="matrix(-1 0 0 1 136 232)" fill="#6C6D52" fill-opacity="0.15"/>
  <rect width="2" height="2" transform="matrix(-1 0 0 1 136 234)" fill="#6C6D52" fill-opacity="0.15"/>
  <rect width="2" height="2" transform="matrix(-1 0 0 1 138 234)" fill="#6C6D52" fill-opacity="0.15"/>
  <rect width="2" height="2" transform="matrix(-1 0 0 1 138 236)" fill="#6C6D52" fill-opacity="0.15"/>
  <rect width="2" height="2" transform="matrix(-1 0 0 1 140 236)" fill="#6C6D52" fill-opacity="0.15"/>
  <rect width="2" height="2" transform="matrix(-1 0 0 1 140 238)" fill="#6C6D52" fill-opacity="0.15"/>
  <rect width="2" height="2" transform="matrix(-1 0 0 1 144 242)" fill="#6C6D52" fill-opacity="0.15"/>
  <rect width="2" height="2" transform="matrix(-1 0 0 1 148 246)" fill="#6C6D52" fill-opacity="0.15"/>
  <rect width="2" height="2" transform="matrix(-1 0 0 1 152 250)" fill="#6C6D52" fill-opacity="0.15"/>
  <rect width="2" height="2" transform="matrix(-1 0 0 1 142 238)" fill="#6C6D52" fill-opacity="0.15"/>
  <rect width="2" height="2" transform="matrix(-1 0 0 1 146 242)" fill="#6C6D52" fill-opacity="0.15"/>
  <rect width="2" height="2" transform="matrix(-1 0 0 1 150 246)" fill="#6C6D52" fill-opacity="0.15"/>
  <rect width="2" height="2" transform="matrix(-1 0 0 1 154 250)" fill="#6C6D52" fill-opacity="0.15"/>
  <rect width="2" height="2" transform="matrix(-1 0 0 1 142 240)" fill="#6C6D52" fill-opacity="0.15"/>
  <rect width="2" height="2" transform="matrix(-1 0 0 1 146 244)" fill="#6C6D52" fill-opacity="0.15"/>
  <rect width="2" height="2" transform="matrix(-1 0 0 1 150 248)" fill="#6C6D52" fill-opacity="0.15"/>
  <rect width="2" height="2" transform="matrix(-1 0 0 1 154 252)" fill="#6C6D52" fill-opacity="0.15"/>
  <rect width="2" height="2" transform="matrix(-1 0 0 1 144 240)" fill="#6C6D52" fill-opacity="0.15"/>
  <rect width="2" height="2" transform="matrix(-1 0 0 1 148 244)" fill="#6C6D52" fill-opacity="0.15"/>
  <rect width="2" height="2" transform="matrix(-1 0 0 1 152 248)" fill="#6C6D52" fill-opacity="0.15"/>
  <rect width="2" height="2" transform="matrix(-1 0 0 1 208 252)" fill="#6C6D52" fill-opacity="0.15"/>
  <rect width="2" height="2" transform="matrix(-1 0 0 1 208 254)" fill="#6C6D52" fill-opacity="0.15"/>
  <rect width="2" height="2" transform="matrix(-1 0 0 1 210 254)" fill="#6C6D52" fill-opacity="0.15"/>
  <rect width="2" height="2" transform="matrix(-1 0 0 1 210 256)" fill="#6C6D52" fill-opacity="0.15"/>
  <rect width="2" height="2" transform="matrix(-1 0 0 1 212 256)" fill="#6C6D52" fill-opacity="0.15"/>
  <rect width="2" height="2" transform="matrix(-1 0 0 1 212 258)" fill="#6C6D52" fill-opacity="0.15"/>
  <rect width="2" height="2" transform="matrix(-1 0 0 1 214 258)" fill="#6C6D52" fill-opacity="0.15"/>
  <rect width="2" height="2" transform="matrix(-1 0 0 1 214 260)" fill="#6C6D52" fill-opacity="0.15"/>
  <rect width="2" height="2" transform="matrix(-1 0 0 1 216 260)" fill="#6C6D52" fill-opacity="0.15"/>
  <rect width="2" height="2" transform="matrix(-1 0 0 1 216 262)" fill="#6C6D52" fill-opacity="0.15"/>
  <rect width="2" height="2" transform="matrix(-1 0 0 1 218 262)" fill="#6C6D52" fill-opacity="0.15"/>
  <rect width="2" height="2" transform="matrix(-1 0 0 1 218 264)" fill="#6C6D52" fill-opacity="0.15"/>
  <rect width="2" height="2" transform="matrix(-1 0 0 1 222 268)" fill="#6C6D52" fill-opacity="0.15"/>
  <rect width="2" height="2" transform="matrix(-1 0 0 1 226 272)" fill="#6C6D52" fill-opacity="0.15"/>
  <rect width="2" height="2" transform="matrix(-1 0 0 1 230 276)" fill="#6C6D52" fill-opacity="0.15"/>
  <rect width="2" height="2" transform="matrix(-1 0 0 1 220 264)" fill="#6C6D52" fill-opacity="0.15"/>
  <rect width="2" height="2" transform="matrix(-1 0 0 1 224 268)" fill="#6C6D52" fill-opacity="0.15"/>
  <rect width="2" height="2" transform="matrix(-1 0 0 1 228 272)" fill="#6C6D52" fill-opacity="0.15"/>
  <rect width="2" height="2" transform="matrix(-1 0 0 1 232 276)" fill="#6C6D52" fill-opacity="0.15"/>
  <rect width="2" height="2" transform="matrix(-1 0 0 1 220 266)" fill="#6C6D52" fill-opacity="0.15"/>
  <rect width="2" height="2" transform="matrix(-1 0 0 1 224 270)" fill="#6C6D52" fill-opacity="0.15"/>
  <rect width="2" height="2" transform="matrix(-1 0 0 1 228 274)" fill="#6C6D52" fill-opacity="0.15"/>
  <rect width="2" height="2" transform="matrix(-1 0 0 1 232 278)" fill="#6C6D52" fill-opacity="0.15"/>
  <rect width="2" height="2" transform="matrix(-1 0 0 1 222 266)" fill="#6C6D52" fill-opacity="0.15"/>
  <rect width="2" height="2" transform="matrix(-1 0 0 1 226 270)" fill="#6C6D52" fill-opacity="0.15"/>
  <rect width="2" height="2" transform="matrix(-1 0 0 1 230 274)" fill="#6C6D52" fill-opacity="0.15"/>
  <rect width="2" height="2" transform="matrix(-1 0 0 1 206 252)" fill="#6C6D52" fill-opacity="0.15"/>
  <rect width="2" height="2" transform="matrix(-1 0 0 1 158 252)" fill="#6C6D52" fill-opacity="0.15"/>
  <rect width="2" height="2" transform="matrix(-1 0 0 1 162 252)" fill="#6C6D52" fill-opacity="0.15"/>
  <rect width="2" height="2" transform="matrix(-1 0 0 1 166 252)" fill="#6C6D52" fill-opacity="0.15"/>
  <rect width="2" height="2" transform="matrix(-1 0 0 1 170 252)" fill="#6C6D52" fill-opacity="0.15"/>
  <rect width="2" height="2" transform="matrix(-1 0 0 1 174 252)" fill="#6C6D52" fill-opacity="0.15"/>
  <rect width="2" height="2" transform="matrix(-1 0 0 1 178 252)" fill="#6C6D52" fill-opacity="0.15"/>
  <rect width="2" height="2" transform="matrix(-1 0 0 1 182 252)" fill="#6C6D52" fill-opacity="0.15"/>
  <rect width="2" height="2" transform="matrix(-1 0 0 1 186 252)" fill="#6C6D52" fill-opacity="0.15"/>
  <rect width="2" height="2" transform="matrix(-1 0 0 1 190 252)" fill="#6C6D52" fill-opacity="0.15"/>
  <rect width="2" height="2" transform="matrix(-1 0 0 1 194 252)" fill="#6C6D52" fill-opacity="0.15"/>
  <rect width="2" height="2" transform="matrix(-1 0 0 1 198 252)" fill="#6C6D52" fill-opacity="0.15"/>
  <rect width="2" height="2" transform="matrix(-1 0 0 1 202 252)" fill="#6C6D52" fill-opacity="0.15"/>
  <rect width="2" height="2" transform="matrix(-1 0 0 1 156 252)" fill="#6C6D52" fill-opacity="0.15"/>
  <rect width="2" height="2" transform="matrix(-1 0 0 1 160 252)" fill="#6C6D52" fill-opacity="0.15"/>
  <rect width="2" height="2" transform="matrix(-1 0 0 1 164 252)" fill="#6C6D52" fill-opacity="0.15"/>
  <rect width="2" height="2" transform="matrix(-1 0 0 1 168 252)" fill="#6C6D52" fill-opacity="0.15"/>
  <rect width="2" height="2" transform="matrix(-1 0 0 1 172 252)" fill="#6C6D52" fill-opacity="0.15"/>
  <rect width="2" height="2" transform="matrix(-1 0 0 1 176 252)" fill="#6C6D52" fill-opacity="0.15"/>
  <rect width="2" height="2" transform="matrix(-1 0 0 1 180 252)" fill="#6C6D52" fill-opacity="0.15"/>
  <rect width="2" height="2" transform="matrix(-1 0 0 1 184 252)" fill="#6C6D52" fill-opacity="0.15"/>
  <rect width="2" height="2" transform="matrix(-1 0 0 1 188 252)" fill="#6C6D52" fill-opacity="0.15"/>
  <rect width="2" height="2" transform="matrix(-1 0 0 1 192 252)" fill="#6C6D52" fill-opacity="0.15"/>
  <rect width="2" height="2" transform="matrix(-1 0 0 1 196 252)" fill="#6C6D52" fill-opacity="0.15"/>
  <rect width="2" height="2" transform="matrix(-1 0 0 1 200 252)" fill="#6C6D52" fill-opacity="0.15"/>
  <rect width="2" height="2" transform="matrix(-1 0 0 1 204 252)" fill="#6C6D52" fill-opacity="0.15"/>
  <rect width="2" height="2" transform="matrix(-1 0 0 1 130 58)" fill="#6C6D52" fill-opacity="0.15"/>
  <rect width="2" height="2" transform="matrix(-1 0 0 1 130 60)" fill="#6C6D52" fill-opacity="0.15"/>
  <rect width="2" height="2" transform="matrix(-1 0 0 1 132 60)" fill="#6C6D52" fill-opacity="0.15"/>
  <rect width="2" height="2" transform="matrix(-1 0 0 1 132 62)" fill="#6C6D52" fill-opacity="0.15"/>
  <rect width="2" height="2" transform="matrix(-1 0 0 1 134 62)" fill="#6C6D52" fill-opacity="0.15"/>
  <rect width="2" height="2" transform="matrix(-1 0 0 1 134 64)" fill="#6C6D52" fill-opacity="0.15"/>
  <rect width="2" height="2" transform="matrix(-1 0 0 1 136 64)" fill="#6C6D52" fill-opacity="0.15"/>
  <rect width="2" height="2" transform="matrix(-1 0 0 1 136 66)" fill="#6C6D52" fill-opacity="0.15"/>
  <rect width="2" height="2" transform="matrix(-1 0 0 1 138 66)" fill="#6C6D52" fill-opacity="0.15"/>
  <rect width="2" height="2" transform="matrix(-1 0 0 1 138 68)" fill="#6C6D52" fill-opacity="0.15"/>
  <rect width="2" height="2" transform="matrix(-1 0 0 1 140 68)" fill="#6C6D52" fill-opacity="0.15"/>
  <rect width="2" height="2" transform="matrix(-1 0 0 1 140 70)" fill="#6C6D52" fill-opacity="0.15"/>
  <rect width="2" height="2" transform="matrix(-1 0 0 1 144 74)" fill="#6C6D52" fill-opacity="0.15"/>
  <rect width="2" height="2" transform="matrix(-1 0 0 1 148 78)" fill="#6C6D52" fill-opacity="0.15"/>
  <rect width="2" height="2" transform="matrix(-1 0 0 1 152 82)" fill="#6C6D52" fill-opacity="0.15"/>
  <rect width="2" height="2" transform="matrix(-1 0 0 1 142 70)" fill="#6C6D52" fill-opacity="0.15"/>
  <rect width="2" height="2" transform="matrix(-1 0 0 1 146 74)" fill="#6C6D52" fill-opacity="0.15"/>
  <rect width="2" height="2" transform="matrix(-1 0 0 1 150 78)" fill="#6C6D52" fill-opacity="0.15"/>
  <rect width="2" height="2" transform="matrix(-1 0 0 1 154 82)" fill="#6C6D52" fill-opacity="0.15"/>
  <rect width="2" height="2" transform="matrix(-1 0 0 1 142 72)" fill="#6C6D52" fill-opacity="0.15"/>
  <rect width="2" height="2" transform="matrix(-1 0 0 1 146 76)" fill="#6C6D52" fill-opacity="0.15"/>
  <rect width="2" height="2" transform="matrix(-1 0 0 1 150 80)" fill="#6C6D52" fill-opacity="0.15"/>
  <rect width="2" height="2" transform="matrix(-1 0 0 1 154 84)" fill="#6C6D52" fill-opacity="0.15"/>
  <rect width="2" height="2" transform="matrix(-1 0 0 1 144 72)" fill="#6C6D52" fill-opacity="0.15"/>
  <rect width="2" height="2" transform="matrix(-1 0 0 1 148 76)" fill="#6C6D52" fill-opacity="0.15"/>
  <rect width="2" height="2" transform="matrix(-1 0 0 1 152 80)" fill="#6C6D52" fill-opacity="0.15"/>
  <rect width="2" height="2" transform="matrix(-1 0 0 1 156 84)" fill="#6C6D52" fill-opacity="0.15"/>
  <rect width="2" height="2" transform="matrix(-1 0 0 1 156 86)" fill="#6C6D52" fill-opacity="0.15"/>
  <rect width="2" height="2" transform="matrix(-1 0 0 1 158 86)" fill="#6C6D52" fill-opacity="0.15"/>
  <rect width="2" height="2" transform="matrix(-1 0 0 1 158 88)" fill="#6C6D52" fill-opacity="0.15"/>
  <rect width="2" height="2" transform="matrix(-1 0 0 1 160 88)" fill="#6C6D52" fill-opacity="0.15"/>
  <rect width="2" height="2" transform="matrix(-1 0 0 1 160 90)" fill="#6C6D52" fill-opacity="0.15"/>
  <rect width="2" height="2" transform="matrix(-1 0 0 1 162 90)" fill="#6C6D52" fill-opacity="0.15"/>
  <rect width="2" height="2" transform="matrix(-1 0 0 1 162 92)" fill="#6C6D52" fill-opacity="0.15"/>
  <rect width="2" height="2" transform="matrix(-1 0 0 1 164 92)" fill="#6C6D52" fill-opacity="0.15"/>
  <rect width="2" height="2" transform="matrix(-1 0 0 1 164 94)" fill="#6C6D52" fill-opacity="0.15"/>
  <rect width="2" height="2" transform="matrix(-1 0 0 1 168 98)" fill="#6C6D52" fill-opacity="0.15"/>
  <rect width="2" height="2" transform="matrix(-1 0 0 1 172 102)" fill="#6C6D52" fill-opacity="0.15"/>
  <rect width="2" height="2" transform="matrix(-1 0 0 1 176 106)" fill="#6C6D52" fill-opacity="0.15"/>
  <rect width="2" height="2" transform="matrix(-1 0 0 1 166 94)" fill="#6C6D52" fill-opacity="0.15"/>
  <rect width="2" height="2" transform="matrix(-1 0 0 1 170 98)" fill="#6C6D52" fill-opacity="0.15"/>
  <rect width="2" height="2" transform="matrix(-1 0 0 1 174 102)" fill="#6C6D52" fill-opacity="0.15"/>
  <rect width="2" height="2" transform="matrix(-1 0 0 1 178 106)" fill="#6C6D52" fill-opacity="0.15"/>
  <rect width="2" height="2" transform="matrix(-1 0 0 1 166 96)" fill="#6C6D52" fill-opacity="0.15"/>
  <rect width="2" height="2" transform="matrix(-1 0 0 1 170 100)" fill="#6C6D52" fill-opacity="0.15"/>
  <rect width="2" height="2" transform="matrix(-1 0 0 1 174 104)" fill="#6C6D52" fill-opacity="0.15"/>
  <rect width="2" height="2" transform="matrix(-1 0 0 1 178 108)" fill="#6C6D52" fill-opacity="0.15"/>
  <rect width="2" height="2" transform="matrix(-1 0 0 1 168 96)" fill="#6C6D52" fill-opacity="0.15"/>
  <rect width="2" height="2" transform="matrix(-1 0 0 1 172 100)" fill="#6C6D52" fill-opacity="0.15"/>
  <rect width="2" height="2" transform="matrix(-1 0 0 1 176 104)" fill="#6C6D52" fill-opacity="0.15"/>
  <rect width="2" height="2" transform="matrix(-1 0 0 1 180 108)" fill="#6C6D52" fill-opacity="0.15"/>
  <rect width="2" height="2" transform="matrix(-1 0 0 1 180 110)" fill="#6C6D52" fill-opacity="0.15"/>
  <rect width="2" height="2" transform="matrix(-1 0 0 1 182 110)" fill="#6C6D52" fill-opacity="0.15"/>
  <rect width="2" height="2" transform="matrix(-1 0 0 1 182 112)" fill="#6C6D52" fill-opacity="0.15"/>
  <rect width="2" height="2" transform="matrix(-1 0 0 1 184 112)" fill="#6C6D52" fill-opacity="0.15"/>
  <rect width="2" height="2" transform="matrix(-1 0 0 1 184 114)" fill="#6C6D52" fill-opacity="0.15"/>
  <rect width="2" height="2" transform="matrix(-1 0 0 1 186 114)" fill="#6C6D52" fill-opacity="0.15"/>
  <rect width="2" height="2" transform="matrix(-1 0 0 1 186 116)" fill="#6C6D52" fill-opacity="0.15"/>
  <rect width="2" height="2" transform="matrix(-1 0 0 1 188 116)" fill="#6C6D52" fill-opacity="0.15"/>
  <rect width="2" height="2" transform="matrix(-1 0 0 1 188 118)" fill="#6C6D52" fill-opacity="0.15"/>
  <rect width="2" height="2" transform="matrix(-1 0 0 1 190 118)" fill="#6C6D52" fill-opacity="0.15"/>
  <rect width="2" height="2" transform="matrix(-1 0 0 1 190 120)" fill="#6C6D52" fill-opacity="0.15"/>
  <rect width="2" height="2" transform="matrix(-1 0 0 1 192 122)" fill="#6C6D52" fill-opacity="0.15"/>
  <rect width="2" height="2" transform="matrix(-1 0 0 1 194 124)" fill="#6C6D52" fill-opacity="0.15"/>
  <rect width="2" height="2" transform="matrix(-1 0 0 1 196 126)" fill="#6C6D52" fill-opacity="0.15"/>
  <rect width="2" height="2" transform="matrix(-1 0 0 1 278 127)" fill="#6C6D52" fill-opacity="0.15"/>
  <rect width="2" height="2" transform="matrix(-1 0 0 1 278 129)" fill="#6C6D52" fill-opacity="0.15"/>
  <rect width="2" height="2" transform="matrix(-1 0 0 1 280 129)" fill="#6C6D52" fill-opacity="0.15"/>
  <rect width="2" height="2" transform="matrix(-1 0 0 1 280 131)" fill="#6C6D52" fill-opacity="0.15"/>
  <rect width="2" height="2" transform="matrix(-1 0 0 1 282 131)" fill="#6C6D52" fill-opacity="0.15"/>
  <rect width="2" height="2" transform="matrix(-1 0 0 1 282 133)" fill="#6C6D52" fill-opacity="0.15"/>
  <rect width="2" height="2" transform="matrix(-1 0 0 1 284 133)" fill="#6C6D52" fill-opacity="0.15"/>
  <rect width="2" height="2" transform="matrix(-1 0 0 1 284 135)" fill="#6C6D52" fill-opacity="0.15"/>
  <rect width="2" height="2" transform="matrix(-1 0 0 1 286 135)" fill="#6C6D52" fill-opacity="0.15"/>
  <rect width="2" height="2" transform="matrix(-1 0 0 1 286 137)" fill="#6C6D52" fill-opacity="0.15"/>
  <rect width="2" height="2" transform="matrix(-1 0 0 1 288 137)" fill="#6C6D52" fill-opacity="0.15"/>
  <rect width="2" height="2" transform="matrix(-1 0 0 1 288 139)" fill="#6C6D52" fill-opacity="0.15"/>
  <rect width="2" height="2" transform="matrix(-1 0 0 1 292 143)" fill="#6C6D52" fill-opacity="0.15"/>
  <rect width="2" height="2" transform="matrix(-1 0 0 1 296 147)" fill="#6C6D52" fill-opacity="0.15"/>
  <rect width="2" height="2" transform="matrix(-1 0 0 1 300 151)" fill="#6C6D52" fill-opacity="0.15"/>
  <rect width="2" height="2" transform="matrix(-1 0 0 1 290 139)" fill="#6C6D52" fill-opacity="0.15"/>
  <rect width="2" height="2" transform="matrix(-1 0 0 1 294 143)" fill="#6C6D52" fill-opacity="0.15"/>
  <rect width="2" height="2" transform="matrix(-1 0 0 1 298 147)" fill="#6C6D52" fill-opacity="0.15"/>
  <rect width="2" height="2" transform="matrix(-1 0 0 1 302 151)" fill="#6C6D52" fill-opacity="0.15"/>
  <rect width="2" height="2" transform="matrix(-1 0 0 1 290 141)" fill="#6C6D52" fill-opacity="0.15"/>
  <rect width="2" height="2" transform="matrix(-1 0 0 1 294 145)" fill="#6C6D52" fill-opacity="0.15"/>
  <rect width="2" height="2" transform="matrix(-1 0 0 1 298 149)" fill="#6C6D52" fill-opacity="0.15"/>
  <rect width="2" height="2" transform="matrix(-1 0 0 1 302 153)" fill="#6C6D52" fill-opacity="0.15"/>
  <rect width="2" height="2" transform="matrix(-1 0 0 1 292 141)" fill="#6C6D52" fill-opacity="0.15"/>
  <rect width="2" height="2" transform="matrix(-1 0 0 1 296 145)" fill="#6C6D52" fill-opacity="0.15"/>
  <rect width="2" height="2" transform="matrix(-1 0 0 1 300 149)" fill="#6C6D52" fill-opacity="0.15"/>
  <rect width="2" height="2" transform="matrix(-1 0 0 1 304 153)" fill="#6C6D52" fill-opacity="0.15"/>
  <rect width="2" height="2" transform="matrix(-1 0 0 1 304 155)" fill="#6C6D52" fill-opacity="0.15"/>
  <rect width="2" height="2" transform="matrix(-1 0 0 1 306 155)" fill="#6C6D52" fill-opacity="0.15"/>
  <rect width="2" height="2" transform="matrix(-1 0 0 1 306 157)" fill="#6C6D52" fill-opacity="0.15"/>
  <rect width="2" height="2" transform="matrix(-1 0 0 1 308 157)" fill="#6C6D52" fill-opacity="0.15"/>
  <rect width="2" height="2" transform="matrix(-1 0 0 1 308 159)" fill="#6C6D52" fill-opacity="0.15"/>
  <rect width="2" height="2" transform="matrix(-1 0 0 1 310 159)" fill="#6C6D52" fill-opacity="0.15"/>
  <rect width="2" height="2" transform="matrix(-1 0 0 1 310 161)" fill="#6C6D52" fill-opacity="0.15"/>
  <rect width="2" height="2" transform="matrix(-1 0 0 1 312 161)" fill="#6C6D52" fill-opacity="0.15"/>
  <rect width="2" height="2" transform="matrix(-1 0 0 1 312 163)" fill="#6C6D52" fill-opacity="0.15"/>
  <rect width="2" height="2" transform="matrix(-1 0 0 1 316 167)" fill="#6C6D52" fill-opacity="0.15"/>
  <rect width="2" height="2" transform="matrix(-1 0 0 1 320 171)" fill="#6C6D52" fill-opacity="0.15"/>
  <rect width="2" height="2" transform="matrix(-1 0 0 1 324 175)" fill="#6C6D52" fill-opacity="0.15"/>
  <rect width="2" height="2" transform="matrix(-1 0 0 1 314 163)" fill="#6C6D52" fill-opacity="0.15"/>
  <rect width="2" height="2" transform="matrix(-1 0 0 1 318 167)" fill="#6C6D52" fill-opacity="0.15"/>
  <rect width="2" height="2" transform="matrix(-1 0 0 1 322 171)" fill="#6C6D52" fill-opacity="0.15"/>
  <rect width="2" height="2" transform="matrix(-1 0 0 1 326 175)" fill="#6C6D52" fill-opacity="0.15"/>
  <rect width="2" height="2" transform="matrix(-1 0 0 1 314 165)" fill="#6C6D52" fill-opacity="0.15"/>
  <rect width="2" height="2" transform="matrix(-1 0 0 1 318 169)" fill="#6C6D52" fill-opacity="0.15"/>
  <rect width="2" height="2" transform="matrix(-1 0 0 1 322 173)" fill="#6C6D52" fill-opacity="0.15"/>
  <rect width="2" height="2" transform="matrix(-1 0 0 1 326 177)" fill="#6C6D52" fill-opacity="0.15"/>
  <rect width="2" height="2" transform="matrix(-1 0 0 1 316 165)" fill="#6C6D52" fill-opacity="0.15"/>
  <rect width="2" height="2" transform="matrix(-1 0 0 1 320 169)" fill="#6C6D52" fill-opacity="0.15"/>
  <rect width="2" height="2" transform="matrix(-1 0 0 1 324 173)" fill="#6C6D52" fill-opacity="0.15"/>
  <rect width="2" height="2" transform="matrix(-1 0 0 1 328 177)" fill="#6C6D52" fill-opacity="0.15"/>
  <rect width="2" height="2" transform="matrix(-1 0 0 1 328 179)" fill="#6C6D52" fill-opacity="0.15"/>
  <rect width="2" height="2" transform="matrix(-1 0 0 1 330 179)" fill="#6C6D52" fill-opacity="0.15"/>
  <rect width="2" height="2" transform="matrix(-1 0 0 1 330 181)" fill="#6C6D52" fill-opacity="0.15"/>
  <rect width="2" height="2" transform="matrix(-1 0 0 1 332 181)" fill="#6C6D52" fill-opacity="0.15"/>
  <rect width="2" height="2" transform="matrix(-1 0 0 1 332 183)" fill="#6C6D52" fill-opacity="0.15"/>
  <rect width="2" height="2" transform="matrix(-1 0 0 1 334 183)" fill="#6C6D52" fill-opacity="0.15"/>
  <rect width="2" height="2" transform="matrix(-1 0 0 1 334 185)" fill="#6C6D52" fill-opacity="0.15"/>
  <rect width="2" height="2" transform="matrix(-1 0 0 1 336 185)" fill="#6C6D52" fill-opacity="0.15"/>
  <rect width="2" height="2" transform="matrix(-1 0 0 1 336 187)" fill="#6C6D52" fill-opacity="0.15"/>
  <rect width="2" height="2" transform="matrix(-1 0 0 1 338 187)" fill="#6C6D52" fill-opacity="0.15"/>
  <rect width="2" height="2" transform="matrix(-1 0 0 1 338 189)" fill="#6C6D52" fill-opacity="0.15"/>
  <rect width="2" height="2" transform="matrix(-1 0 0 1 192 120)" fill="#6C6D52" fill-opacity="0.15"/>
  <rect width="2" height="2" transform="matrix(-1 0 0 1 194 122)" fill="#6C6D52" fill-opacity="0.15"/>
  <rect width="2" height="2" transform="matrix(-1 0 0 1 196 124)" fill="#6C6D52" fill-opacity="0.15"/>
  <rect width="2" height="2" transform="matrix(-1 0 0 1 198 126)" fill="#6C6D52" fill-opacity="0.15"/>
  <rect width="2" height="2" transform="matrix(-1 0 0 1 276 127)" fill="#6C6D52" fill-opacity="0.15"/>
  <rect width="2" height="2" transform="matrix(-1 0 0 1 228 127)" fill="#6C6D52" fill-opacity="0.15"/>
  <rect width="2" height="2" transform="matrix(-1 0 0 1 232 127)" fill="#6C6D52" fill-opacity="0.15"/>
  <rect width="2" height="2" transform="matrix(-1 0 0 1 236 127)" fill="#6C6D52" fill-opacity="0.15"/>
  <rect width="2" height="2" transform="matrix(-1 0 0 1 240 127)" fill="#6C6D52" fill-opacity="0.15"/>
  <rect width="2" height="2" transform="matrix(-1 0 0 1 244 127)" fill="#6C6D52" fill-opacity="0.15"/>
  <rect width="2" height="2" transform="matrix(-1 0 0 1 248 127)" fill="#6C6D52" fill-opacity="0.15"/>
  <rect width="2" height="2" transform="matrix(-1 0 0 1 252 127)" fill="#6C6D52" fill-opacity="0.15"/>
  <rect width="2" height="2" transform="matrix(-1 0 0 1 256 127)" fill="#6C6D52" fill-opacity="0.15"/>
  <rect width="2" height="2" transform="matrix(-1 0 0 1 260 127)" fill="#6C6D52" fill-opacity="0.15"/>
  <rect width="2" height="2" transform="matrix(-1 0 0 1 264 127)" fill="#6C6D52" fill-opacity="0.15"/>
  <rect width="2" height="2" transform="matrix(-1 0 0 1 268 127)" fill="#6C6D52" fill-opacity="0.15"/>
  <rect width="2" height="2" transform="matrix(-1 0 0 1 272 127)" fill="#6C6D52" fill-opacity="0.15"/>
  <rect width="2" height="2" transform="matrix(-1 0 0 1 226 127)" fill="#6C6D52" fill-opacity="0.15"/>
  <rect width="2" height="2" transform="matrix(-1 0 0 1 224 127)" fill="#6C6D52" fill-opacity="0.15"/>
  <rect width="2" height="2" transform="matrix(-1 0 0 1 222 127)" fill="#6C6D52" fill-opacity="0.15"/>
  <rect width="2" height="2" transform="matrix(-1 0 0 1 220 127)" fill="#6C6D52" fill-opacity="0.15"/>
  <rect width="2" height="2" transform="matrix(-1 0 0 1 218 127)" fill="#6C6D52" fill-opacity="0.15"/>
  <rect width="2" height="2" transform="matrix(-1 0 0 1 216 127)" fill="#6C6D52" fill-opacity="0.15"/>
  <rect width="2" height="2" transform="matrix(-1 0 0 1 214 127)" fill="#6C6D52" fill-opacity="0.15"/>
  <rect width="2" height="2" transform="matrix(-1 0 0 1 212 127)" fill="#6C6D52" fill-opacity="0.15"/>
  <rect width="2" height="2" transform="matrix(-1 0 0 1 208 127)" fill="#6C6D52" fill-opacity="0.15"/>
  <rect width="2" height="2" transform="matrix(-1 0 0 1 210 127)" fill="#6C6D52" fill-opacity="0.15"/>
  <rect width="2" height="2" transform="matrix(-1 0 0 1 206 127)" fill="#6C6D52" fill-opacity="0.15"/>
  <rect width="2" height="2" transform="matrix(-1 0 0 1 204 127)" fill="#6C6D52" fill-opacity="0.15"/>
  <rect width="2" height="2" transform="matrix(-1 0 0 1 202 127)" fill="#6C6D52" fill-opacity="0.15"/>
  <rect width="2" height="2" transform="matrix(-1 0 0 1 200 127)" fill="#6C6D52" fill-opacity="0.15"/>
  <rect width="2" height="2" transform="matrix(-1 0 0 1 230 127)" fill="#6C6D52" fill-opacity="0.15"/>
  <rect width="2" height="2" transform="matrix(-1 0 0 1 234 127)" fill="#6C6D52" fill-opacity="0.15"/>
  <rect width="2" height="2" transform="matrix(-1 0 0 1 238 127)" fill="#6C6D52" fill-opacity="0.15"/>
  <rect width="2" height="2" transform="matrix(-1 0 0 1 242 127)" fill="#6C6D52" fill-opacity="0.15"/>
  <rect width="2" height="2" transform="matrix(-1 0 0 1 246 127)" fill="#6C6D52" fill-opacity="0.15"/>
  <rect width="2" height="2" transform="matrix(-1 0 0 1 250 127)" fill="#6C6D52" fill-opacity="0.15"/>
  <rect width="2" height="2" transform="matrix(-1 0 0 1 254 127)" fill="#6C6D52" fill-opacity="0.15"/>
  <rect width="2" height="2" transform="matrix(-1 0 0 1 258 127)" fill="#6C6D52" fill-opacity="0.15"/>
  <rect width="2" height="2" transform="matrix(-1 0 0 1 262 127)" fill="#6C6D52" fill-opacity="0.15"/>
  <rect width="2" height="2" transform="matrix(-1 0 0 1 266 127)" fill="#6C6D52" fill-opacity="0.15"/>
  <rect width="2" height="2" transform="matrix(-1 0 0 1 270 127)" fill="#6C6D52" fill-opacity="0.15"/>
  <rect width="2" height="2" transform="matrix(-1 0 0 1 274 127)" fill="#6C6D52" fill-opacity="0.15"/>
  <defs>
    <linearGradient id="paint0_linear_668_132772" x1="21" y1="279" x2="21" y2="402" gradientUnits="userSpaceOnUse">
    <stop stop-color="#6C6D52"/>
    <stop offset="1" stop-color="#6C6D52" stop-opacity="0"/>
    </linearGradient>
    <linearGradient id="paint1_linear_668_132772" x1="127" y1="0" x2="127" y2="98" gradientUnits="userSpaceOnUse">
    <stop stop-color="#6C6D52" stop-opacity="0"/>
    <stop offset="1" stop-color="#6C6D52"/>
    </linearGradient>
    <linearGradient id="paint2_linear_668_132772" x1="127" y1="140" x2="127" y2="337" gradientUnits="userSpaceOnUse">
    <stop stop-color="#6C6D52"/>
    <stop offset="1" stop-color="#6C6D52" stop-opacity="0"/>
    </linearGradient>
    <linearGradient id="paint3_linear_668_132772" x1="233" y1="326" x2="233" y2="430" gradientUnits="userSpaceOnUse">
    <stop stop-color="#6C6D52"/>
    <stop offset="1" stop-color="#6C6D52" stop-opacity="0"/>
    </linearGradient>
    <linearGradient id="paint4_linear_668_132772" x1="339" y1="337" x2="339" y2="404" gradientUnits="userSpaceOnUse">
    <stop stop-color="#6C6D52"/>
    <stop offset="1" stop-color="#6C6D52" stop-opacity="0"/>
    </linearGradient>
    <linearGradient id="paint5_linear_668_132772" x1="553" y1="225" x2="553" y2="403" gradientUnits="userSpaceOnUse">
    <stop stop-color="#6C6D52"/>
    <stop offset="1" stop-color="#6C6D52" stop-opacity="0"/>
    </linearGradient>
    <linearGradient id="paint6_linear_668_132772" x1="445" y1="153" x2="445" y2="403" gradientUnits="userSpaceOnUse">
    <stop stop-color="#6C6D52"/>
    <stop offset="1" stop-color="#6C6D52" stop-opacity="0"/>
    </linearGradient>
    <linearGradient id="paint7_linear_668_132772" x1="552" y1="0" x2="552" y2="183" gradientUnits="userSpaceOnUse">
    <stop stop-color="#6C6D52" stop-opacity="0"/>
    <stop offset="1" stop-color="#6C6D52"/>
    </linearGradient>
    <linearGradient id="paint8_linear_668_132772" x1="445" y1="0" x2="445" y2="111" gradientUnits="userSpaceOnUse">
    <stop stop-color="#6C6D52" stop-opacity="0"/>
    <stop offset="1" stop-color="#6C6D52"/>
    </linearGradient>
    <linearGradient id="paint9_linear_668_132772" x1="339" y1="0" x2="339" y2="191" gradientUnits="userSpaceOnUse">
    <stop stop-color="#6C6D52" stop-opacity="0"/>
    <stop offset="1" stop-color="#6C6D52"/>
    </linearGradient>
    <linearGradient id="paint10_linear_668_132772" x1="233" y1="0" x2="233" y2="284" gradientUnits="userSpaceOnUse">
    <stop stop-color="#6C6D52" stop-opacity="0"/>
    <stop offset="1" stop-color="#6C6D52"/>
    </linearGradient>
  </defs>
</svg>
