<svg viewBox="0 0 21 20" fill="none" xmlns="http://www.w3.org/2000/svg">
  <path d="M18.5 3H17.5V19H18.5V3Z" fill="#212529"/>
  <path d="M17.5 2H16.5V3H17.5V2Z" fill="black"/>
  <path d="M16.5 1H15.5V2H16.5V1Z" fill="black"/>
  <path d="M16.5 5H15.5V4H14.5V3H13.5V2H2.5V20H16.5V5ZM15.4988 19H3.5V3H11.5V6.73701H15.5L15.4988 19Z" fill="black"/>
  <path d="M15.5 0H3.5V1H15.5V0Z" fill="black"/>
  <path d="M13.5 15H5.5V16H13.5V15Z" fill="black"/>
  <path d="M13.5 12H5.5V13H13.5V12Z" fill="black"/>
  <path d="M13.5 9H5.5V10H13.5V9Z" fill="black"/>
  <path d="M9.5 5H5.5V6H9.5V5Z" fill="black"/>
</svg>
